<?xml version="1.0" encoding="iso-8859-1"?>
<!-- Generator: Adobe Illustrator 16.0.0, SVG Export Plug-In . SVG Version: 6.00 Build 0)  -->
<!DOCTYPE svg PUBLIC "-//W3C//DTD SVG 1.1//EN" "http://www.w3.org/Graphics/SVG/1.1/DTD/svg11.dtd">
<svg version="1.1" id="Capa_1" xmlns="http://www.w3.org/2000/svg" xmlns:xlink="http://www.w3.org/1999/xlink" x="0px" y="0px"
	 width="45.294px" height="45.294px" viewBox="0 0 45.294 45.294" style="enable-background:new 0 0 45.294 45.294;"
	 xml:space="preserve">
<g style="stroke:#0C40FF;stroke-opacity:1;fill:#0C40FF;fill-opacity:1">
	<path d="M41.947,5.64c-0.054-0.011-0.106-0.017-0.161-0.021l0.001-0.01L10.907,0l-0.002,0.011C9.18-0.081,7.181,3.291,6.377,7.722
		c-0.805,4.43-0.233,8.246,1.414,8.769l6.322,1.182v6.815c0,0.433,0.008,1.02-0.036,1.154c0,0-0.117,0.174-0.572,0.461L6.888,30.07
		v-3.656c0-0.717-0.56-1.305-1.276-1.305H2.6c-0.717,0-1.273,0.588-1.273,1.305v17.583c0,0.717,0.557,1.297,1.273,1.297h3.011
		c0.717,0,1.276-0.58,1.276-1.297v-7.021l9.731-5.83c3.435-2.164,3.457-4.654,3.457-6.658v-5.732c0,0,18.811,3.417,18.863,3.427
		c1.76,0.323,3.859-3.123,4.689-7.691C44.46,9.922,43.706,5.959,41.947,5.64z M12.146,5.716c-0.803-0.145-1.337-0.914-1.19-1.72
		c0.146-0.804,0.913-1.339,1.721-1.191l22.059,4.008c0.804,0.145,1.337,0.916,1.188,1.721c-0.129,0.714-0.75,1.215-1.453,1.215
		c-0.086,0-0.176-0.009-0.268-0.024L12.146,5.716z M40.628,14.045c-0.563,3.093-1.982,5.425-3.176,5.207
		c-0.913-0.165-1.428-1.785-1.361-3.927c1.012-0.002,1.91-0.725,2.098-1.754c0.188-1.029-0.395-2.017-1.338-2.378
		c0.693-1.994,1.732-3.302,2.637-3.137C40.679,8.27,41.188,10.954,40.628,14.045z"/>
</g>
</svg>
