<?xml version="1.0" encoding="iso-8859-1"?>
<!-- Generator: Adobe Illustrator 16.0.0, SVG Export Plug-In . SVG Version: 6.00 Build 0)  -->
<!DOCTYPE svg PUBLIC "-//W3C//DTD SVG 1.1//EN" "http://www.w3.org/Graphics/SVG/1.1/DTD/svg11.dtd">
<svg version="1.1" id="Capa_1" xmlns="http://www.w3.org/2000/svg" xmlns:xlink="http://www.w3.org/1999/xlink" x="0px" y="0px"
	 width="64.042px" height="64.043px" viewBox="0 0 64.042 64.043" style="enable-background:new 0 0 64.042 64.043;"
	 xml:space="preserve">
<g style="stroke:#aaaaaa;stroke-opacity:1;fill:#aaaaaa;fill-opacity:1">
	<path d="M50.41,45.941c0.195,0.195,0.451,0.293,0.707,0.293s0.512-0.098,0.707-0.293c3.688-3.688,5.719-8.589,5.719-13.803
		s-2.031-10.117-5.719-13.807c-0.391-0.391-1.023-0.391-1.414,0s-0.391,1.023,0,1.414c3.311,3.312,5.133,7.712,5.133,12.393
		c0,4.679-1.822,9.079-5.133,12.389C50.019,44.919,50.019,45.552,50.41,45.941z"/>
	<path d="M12.927,46.238c0.256,0,0.512-0.098,0.707-0.293c0.391-0.391,0.391-1.023,0-1.414c-3.312-3.311-5.135-7.711-5.135-12.393
		c0-4.681,1.822-9.08,5.131-12.391c0.391-0.391,0.391-1.023,0-1.414s-1.023-0.391-1.414,0c-3.687,3.688-5.717,8.59-5.717,13.805
		S8.53,42.258,12.22,45.945C12.416,46.142,12.671,46.238,12.927,46.238z"/>
	<path d="M55.712,50.832c0.256,0,0.512-0.099,0.707-0.293c4.916-4.915,7.623-11.449,7.623-18.399s-2.709-13.486-7.625-18.403
		c-0.393-0.391-1.023-0.391-1.414,0c-0.393,0.391-0.393,1.022,0,1.414c4.539,4.54,7.039,10.573,7.039,16.989
		s-2.5,12.448-7.037,16.985c-0.393,0.39-0.393,1.022,0,1.414C55.201,50.733,55.457,50.832,55.712,50.832z"/>
	<path d="M9.265,14.926c0.396-0.385,0.404-1.019,0.02-1.414c-0.387-0.396-1.02-0.404-1.414-0.02C2.795,18.434,0,25.056,0,32.139
		c0,6.951,2.707,13.487,7.623,18.402c0.195,0.194,0.451,0.293,0.707,0.293s0.512-0.099,0.707-0.293c0.391-0.392,0.391-1.023,0-1.414
		C4.499,44.589,2,38.556,2,32.139C2,25.601,4.58,19.487,9.265,14.926z"/>
	<g>
		<path d="M32.021,41.764c-7.552,0-11.625,1.879-11.625,2.647c0,0.768,4.073,2.647,11.625,2.647c7.551,0,11.625-1.879,11.625-2.646
			C43.646,43.644,39.572,41.764,32.021,41.764z M32.021,46.661c-2.229,0-4.834-0.59-4.834-2.25c0-1.661,2.604-2.25,4.834-2.25
			c2.23,0,4.832,0.589,4.832,2.25C36.853,46.071,34.25,46.661,32.021,46.661z"/>
		<path d="M29.842,44.411c0.511,0.136,1.252,0.25,2.179,0.25s1.668-0.114,2.178-0.25c-0.51-0.137-1.251-0.25-2.178-0.25
			S30.353,44.274,29.842,44.411z"/>
		<path d="M46.601,44.675c-0.537-1.569-3.521-9.836-5.541-15.403c-0.039-0.109-0.059-0.226-0.059-0.341
			c0-4.952-4.029-8.98-8.98-8.98c-4.952,0-8.98,4.029-8.98,8.98c0,0.117-0.021,0.234-0.062,0.346
			c-1.984,5.38-5.143,14.041-5.562,15.42c0.136,0.202,0.556,0.446,1.238,0.701c-0.161-0.31-0.26-0.637-0.26-0.987
			c0-3.193,7.063-4.647,13.625-4.647c6.562,0,13.624,1.454,13.624,4.647c0,0.337-0.094,0.649-0.242,0.948
			C46.025,45.118,46.435,44.881,46.601,44.675z"/>
	</g>
</g>
</svg>
