<?xml version="1.0" encoding="UTF-8" standalone="no"?>
<svg
   xmlns:dc="http://purl.org/dc/elements/1.1/"
   xmlns:cc="http://creativecommons.org/ns#"
   xmlns:rdf="http://www.w3.org/1999/02/22-rdf-syntax-ns#"
   xmlns:svg="http://www.w3.org/2000/svg"
   xmlns="http://www.w3.org/2000/svg"
   xmlns:sodipodi="http://sodipodi.sourceforge.net/DTD/sodipodi-0.dtd"
   xmlns:inkscape="http://www.inkscape.org/namespaces/inkscape"
   version="1.1"
   id="Capa_1"
   x="0px"
   y="0px"
   viewBox="0 0 198.78984 198.78984"
   xml:space="preserve"
   width="400"
   height="400"
   inkscape:version="0.91 r13725"
   sodipodi:docname="icon_window_open.svg"><sodipodi:namedview
     pagecolor="#ffffff"
     bordercolor="#666666"
     borderopacity="1"
     objecttolerance="10"
     gridtolerance="10"
     guidetolerance="10"
     inkscape:pageopacity="0"
     inkscape:pageshadow="2"
     inkscape:window-width="1366"
     inkscape:window-height="716"
     id="namedview22"
     showgrid="false"
     inkscape:zoom="1.18"
     inkscape:cx="133.11725"
     inkscape:cy="204.4054"
     inkscape:window-x="-8"
     inkscape:window-y="-8"
     inkscape:window-maximized="1"
     inkscape:current-layer="Capa_1" /><metadata
     id="metadata43"><rdf:RDF><cc:Work
         rdf:about=""><dc:format>image/svg+xml</dc:format><dc:type
           rdf:resource="http://purl.org/dc/dcmitype/StillImage" /><dc:title /></cc:Work></rdf:RDF></metadata><defs
     id="defs41" /><g
     style="fill:#0c40ff;fill-opacity:1;stroke:#0c40ff;stroke-opacity:1;stroke-width:4.76089636;stroke-miterlimit:4;stroke-dasharray:none"
     id="g3"
     transform="matrix(1,0,0,0.69738224,0,21.34023)"><path
       d="m 182.01749,-14.213842 -163.606001,0 c -2.498,0 -4.523,2.025 -4.523,4.523 l 0,245.405002 c 0,2.499 2.024,4.523 4.522,4.523 l 163.606001,0 c 2.498,0 4.522,-2.025 4.522,-4.523 l 0,-245.405002 c 0.001,-2.498 -2.024,-4.523 -4.521,-4.523 z m -159.084001,11.01 72.758,26.817 0,178.796002 -72.758,26.817 0,-232.430002 z m 154.561001,234.396002 -133.736001,0 58.020001,-21.385 c 1.778,-0.655 2.958,-2.35 2.958,-4.243 l 0,-185.104002 c 0,-1.894 -1.181,-3.588 -2.958,-4.244 l -58.019001,-21.385 133.735001,0 0,236.361002 z"
       id="path5"
       style="fill:#0c40ff;fill-opacity:1;stroke:#0c40ff;stroke-opacity:1;stroke-width:4.76089636;stroke-miterlimit:4;stroke-dasharray:none" /></g><g
     id="g9"
     transform="translate(0,-55.66116)" /><g
     id="g11"
     transform="translate(0,-55.66116)" /><g
     id="g13"
     transform="translate(0,-55.66116)" /><g
     id="g15"
     transform="translate(0,-55.66116)" /><g
     id="g17"
     transform="translate(0,-55.66116)" /><g
     id="g19"
     transform="translate(0,-55.66116)" /><g
     id="g21"
     transform="translate(0,-55.66116)" /><g
     id="g23"
     transform="translate(0,-55.66116)" /><g
     id="g25"
     transform="translate(0,-55.66116)" /><g
     id="g27"
     transform="translate(0,-55.66116)" /><g
     id="g29"
     transform="translate(0,-55.66116)" /><g
     id="g31"
     transform="translate(0,-55.66116)" /><g
     id="g33"
     transform="translate(0,-55.66116)" /><g
     id="g35"
     transform="translate(0,-55.66116)" /><g
     id="g37"
     transform="translate(0,-55.66116)" /><path
     style="fill:none;fill-opacity:1;fill-rule:evenodd;stroke:#0c40ff;stroke-width:7.45461881;stroke-linecap:round;stroke-linejoin:miter;stroke-miterlimit:4;stroke-dasharray:none;stroke-opacity:1"
     d="m 70.662415,100.15255 22.613609,0"
     id="path4152"
     inkscape:connector-curvature="0" /></svg>