<?xml version="1.0" encoding="iso-8859-1"?>
<!-- Generator: Adobe Illustrator 16.0.0, SVG Export Plug-In . SVG Version: 6.00 Build 0)  -->
<!DOCTYPE svg PUBLIC "-//W3C//DTD SVG 1.1//EN" "http://www.w3.org/Graphics/SVG/1.1/DTD/svg11.dtd">
<svg version="1.1" id="Capa_1" xmlns="http://www.w3.org/2000/svg" xmlns:xlink="http://www.w3.org/1999/xlink" x="0px" y="0px"
	 width="62.41px" height="62.41px" viewBox="0 0 62.41 62.41" style="enable-background:new 0 0 62.41 62.41;" xml:space="preserve"
	>
<g style="stroke:#0C40FF;stroke-opacity:1;fill:#0C40FF;fill-opacity:1">
	<path d="M31.205,0C13.971,0,0,13.971,0,31.205C0,48.439,13.971,62.41,31.205,62.41c17.234,0,31.205-13.971,31.205-31.205
		C62.41,13.971,48.439,0,31.205,0z M33.324,48.307c-0.002,0-0.004,0-0.006,0h-3.746c-0.052,0-0.098-0.033-0.116-0.08l-1.812-4.709
		l-6.185-3.533l-0.351,4.734c-0.005,0.065-0.06,0.116-0.125,0.116H9.563c-0.069,0-0.125-0.056-0.125-0.125v-3.288
		c0-0.068,0.056-0.125,0.125-0.125h8.744l0.358-6.369c0.001-0.014,0.004-0.027,0.01-0.041l3.566-8.648l-3.326,0.624v4.419
		c0,0.068-0.056,0.125-0.125,0.125h-2.649c-0.069,0-0.125-0.057-0.125-0.125v-7.034c0-0.061,0.044-0.113,0.104-0.123l9.261-1.604
		c-0.62-0.813-0.959-1.814-0.959-2.841c0-2.588,2.105-4.693,4.692-4.693c2.588,0,4.692,2.105,4.692,4.693
		c0,2.328-1.713,4.302-4.003,4.64l0.615,8.583l4.005,0.357c0.064,0.006,0.114,0.06,0.114,0.125v3.014
		c0,0.068-0.055,0.125-0.123,0.125l-6.577,0.093c-0.001,0-0.001,0-0.002,0c-0.056,0-0.104-0.037-0.12-0.091l-0.99-3.465
		l-1.569,4.379l5.757,3.328c0.026,0.017,0.046,0.041,0.056,0.068l2.455,7.274c0.016,0.021,0.024,0.046,0.024,0.073
		C33.449,48.249,33.393,48.307,33.324,48.307z M35.188,45.903c-0.234,0-0.471-0.083-0.662-0.25
		c-0.413-0.366-0.452-0.998-0.086-1.412c3.062-3.468,4.82-8.657,4.82-14.24c0-4.795-1.297-9.32-3.652-12.742
		c-0.312-0.455-0.198-1.077,0.257-1.391c0.457-0.313,1.079-0.198,1.391,0.257c2.583,3.751,4.007,8.679,4.007,13.875
		c0,6.064-1.94,11.737-5.324,15.564C35.74,45.789,35.465,45.903,35.188,45.903z M38.766,47.996c-0.199,0-0.4-0.061-0.576-0.184
		c-0.451-0.319-0.558-0.943-0.237-1.395c3.097-4.371,4.803-10.201,4.803-16.417c0-5.328-1.239-10.337-3.584-14.485
		c-0.272-0.481-0.103-1.091,0.378-1.363c0.479-0.272,1.092-0.103,1.362,0.378c2.515,4.448,3.844,9.797,3.844,15.47
		c0,6.628-1.837,12.868-5.172,17.573C39.389,47.85,39.079,47.996,38.766,47.996z M42.206,50.008c-0.179,0-0.36-0.049-0.522-0.15
		c-0.472-0.289-0.617-0.905-0.328-1.375c3.156-5.117,4.894-11.682,4.894-18.481c0-5.817-1.245-11.403-3.603-16.153
		c-0.246-0.495-0.043-1.095,0.451-1.34s1.096-0.043,1.34,0.452c2.494,5.025,3.812,10.918,3.812,17.042
		c0,7.166-1.843,14.102-5.188,19.531C42.869,49.838,42.542,50.008,42.206,50.008z M47.114,51.854
		c-0.185,0.326-0.522,0.511-0.873,0.511c-0.166,0-0.334-0.041-0.488-0.128c-0.481-0.271-0.653-0.881-0.383-1.361
		c3.146-5.604,4.808-12.354,4.808-19.521c0-6.883-1.543-13.418-4.461-18.896c-0.26-0.488-0.074-1.093,0.413-1.353
		c0.487-0.26,1.093-0.074,1.353,0.413c3.072,5.767,4.695,12.626,4.695,19.836C52.178,38.863,50.426,45.952,47.114,51.854z"/>
</g>
</svg>
