<?xml version="1.0" encoding="UTF-8" standalone="no"?>
<svg
   xmlns:dc="http://purl.org/dc/elements/1.1/"
   xmlns:cc="http://creativecommons.org/ns#"
   xmlns:rdf="http://www.w3.org/1999/02/22-rdf-syntax-ns#"
   xmlns:svg="http://www.w3.org/2000/svg"
   xmlns="http://www.w3.org/2000/svg"
   height="512px"
   width="512px"
   xml:space="preserve"
   style="enable-background:new 0 0 349.027 349.027;"
   viewBox="0 0 349.027 349.027"
   y="0px"
   x="0px"
   id="Capa_1"
   version="1.1"><metadata
     id="metadata45"><rdf:RDF><cc:Work
         rdf:about=""><dc:format>image/svg+xml</dc:format><dc:type
           rdf:resource="http://purl.org/dc/dcmitype/StillImage" /><dc:title></dc:title></cc:Work></rdf:RDF></metadata><defs
     id="defs43" /><g
     id="g11" /><g
     id="g13" /><g
     id="g15" /><g
     id="g17" /><g
     id="g19" /><g
     id="g21" /><g
     id="g23" /><g
     id="g25" /><g
     id="g27" /><g
     id="g29" /><g
     id="g31" /><g
     id="g33" /><g
     id="g35" /><g
     id="g37" /><g
     id="g39" /><circle
     r="79.056213"
     cy="157.92551"
     cx="208.21431"
     id="path4163"
     style="fill:none;fill-opacity:1;stroke:#ffe100;stroke-width:19.5214138;stroke-miterlimit:4;stroke-dasharray:none;stroke-opacity:1" /><g
     style="display:inline"
     id="layer1"><path
       d="m 274.057,162.41935 c -10.97,-28.28806 -38.415,-48.3131 -70.557,-48.3131 -3.059,0 -6.078,0.189 -9.063,0.566 -13.815,-14.95003 -33.563,-24.31603 -55.528,-24.31603 -40.891,0 -74.202,32.47105 -75.585,73.04114 C 27.408,169.29337 0,200.4534 0,238.0714 c 0,41.773 33.862,75.629 75.647,75.629 l 197.717,0 c 41.78,0 75.663,-33.855 75.663,-75.629 0,-41.557 -33.501,-75.27404 -74.97,-75.65205 z"
       id="path9"
       style="fill:#a0a0a0" /></g><g
     id="layer2" /><path
     id="path4211"
     d="m 208.142,29.715237 c 0,19.965528 0,19.965528 0,19.965528 l 0,0"
     style="fill:none;fill-rule:evenodd;stroke:#ffe100;stroke-width:20.45080185;stroke-linecap:round;stroke-linejoin:round;stroke-miterlimit:4;stroke-dasharray:none;stroke-opacity:1" /><path
     id="path4253"
     d="m 316.33734,157.92551 c 20.39818,0 20.39818,0 20.39818,0"
     style="fill:none;fill-rule:evenodd;stroke:#ffe100;stroke-width:20.45080185;stroke-linecap:round;stroke-linejoin:round;stroke-miterlimit:4;stroke-dasharray:none;stroke-opacity:1" /><path
     id="path4257"
     d="M 286.67472,80.832869 302.2572,68.694945"
     style="fill:none;fill-rule:evenodd;stroke:#ffe100;stroke-width:20.45080185;stroke-linecap:round;stroke-linejoin:miter;stroke-miterlimit:4;stroke-dasharray:none;stroke-opacity:1" /></svg>