<?xml version="1.0" encoding="iso-8859-1"?>
<!-- Generator: Adobe Illustrator 18.0.0, SVG Export Plug-In . SVG Version: 6.00 Build 0)  -->
<!DOCTYPE svg PUBLIC "-//W3C//DTD SVG 1.1//EN" "http://www.w3.org/Graphics/SVG/1.1/DTD/svg11.dtd">
<svg version="1.1" id="Capa_1" xmlns="http://www.w3.org/2000/svg" xmlns:xlink="http://www.w3.org/1999/xlink" x="0px" y="0px"
	 width="465.912px" height="465.912px" viewBox="0 0 465.912 465.912" style="enable-background:new 0 0 465.912 465.912;" xml:space="preserve">
<g style="stroke:#0C40FF;stroke-opacity:1;fill:#0C40FF;fill-opacity:1">
	<path d="M378.244,0H87.668c-15.55,0-28.189,12.64-28.189,28.189v409.532c0,15.551,12.64,28.19,28.189,28.19h290.577
		c15.551,0,28.189-12.64,28.189-28.19V28.189C406.434,12.64,393.795,0,378.244,0z M374.711,434.19H91.2V31.722h283.511V434.19z"/>
	<path d="M133.826,192.561h198.26c8.766,0,15.861-7.095,15.861-15.861c0-8.767-7.096-15.86-15.861-15.86h-198.26
		c-8.767,0-15.861,7.094-15.861,15.86C117.966,185.466,125.059,192.561,133.826,192.561z"/>
	<path d="M133.826,240.143h198.26c8.766,0,15.861-7.095,15.861-15.86c0-8.767-7.096-15.861-15.861-15.861h-198.26
		c-8.767,0-15.861,7.095-15.861,15.861C117.966,233.048,125.059,240.143,133.826,240.143z"/>
	<path d="M133.826,287.726h198.26c8.766,0,15.861-7.095,15.861-15.861c0-8.766-7.096-15.86-15.861-15.86h-198.26
		c-8.767,0-15.861,7.095-15.861,15.86C117.966,280.631,125.059,287.726,133.826,287.726z"/>
	<path d="M146.155,127.134h173.604c6.814,0,12.328-5.513,12.328-12.328V76.021c0-6.815-5.514-12.33-12.328-12.33H146.155
		c-6.814,0-12.328,5.515-12.328,12.33v38.784C133.826,121.621,139.34,127.134,146.155,127.134z"/>
	<path d="M133.826,352.315h93.197c8.768,0,15.861-7.095,15.861-15.861c0-8.768-7.094-15.86-15.861-15.86h-93.197
		c-8.767,0-15.861,7.093-15.861,15.86C117.966,345.221,125.059,352.315,133.826,352.315z"/>
	<path d="M133.826,399.897h93.197c8.768,0,15.861-7.094,15.861-15.86c0-8.768-7.094-15.86-15.861-15.86h-93.197
		c-8.767,0-15.861,7.092-15.861,15.86C117.966,392.804,125.059,399.897,133.826,399.897z"/>
	<path d="M332.815,318.3h-59.262c-6.814,0-12.33,5.516-12.33,12.33v59.262c0,6.814,5.516,12.33,12.33,12.33h59.262
		c6.814,0,12.328-5.516,12.328-12.33V330.63C345.143,323.815,339.629,318.3,332.815,318.3z"/>
</g>
</svg>
