<?xml version="1.0" encoding="UTF-8" standalone="no"?>
<svg
   xmlns:dc="http://purl.org/dc/elements/1.1/"
   xmlns:cc="http://creativecommons.org/ns#"
   xmlns:rdf="http://www.w3.org/1999/02/22-rdf-syntax-ns#"
   xmlns:svg="http://www.w3.org/2000/svg"
   xmlns="http://www.w3.org/2000/svg"
   height="512px"
   width="512px"
   xml:space="preserve"
   style="enable-background:new 0 0 512 512;"
   viewBox="0 0 512 512"
   y="0px"
   x="0px"
   id="Layer_1"
   version="1.1"><metadata
     id="metadata63"><rdf:RDF><cc:Work
         rdf:about=""><dc:format>image/svg+xml</dc:format><dc:type
           rdf:resource="http://purl.org/dc/dcmitype/StillImage" /><dc:title></dc:title></cc:Work></rdf:RDF></metadata><defs
     id="defs61" /><g
     id="g7"><path
       style="fill:#f09100;fill-opacity:1"
       id="path9"
       d="m 150.366,460.469 c 0,-16.969 -16.374,-27.438 -17.07,-27.875 l -4.041,-2.536 -4.041,2.536 c -0.697,0.438 -17.07,10.906 -17.07,27.875 0,11.641 9.47,21.112 21.112,21.112 11.64,0 21.11,-9.47 21.11,-21.112 z m -27.015,0 c 0,-4.731 3.152,-8.887 5.907,-11.616 2.754,2.726 5.901,6.88 5.901,11.616 0,3.256 -2.648,5.904 -5.904,5.904 -3.256,0 -5.904,-2.648 -5.904,-5.904 z" /><path
       style="fill:#f09100;fill-opacity:1"
       id="path11"
       d="m 201.064,460.469 c 0,-16.969 -16.374,-27.438 -17.07,-27.875 l -4.041,-2.536 -4.041,2.536 c -0.697,0.438 -17.07,10.906 -17.07,27.875 0,11.641 9.47,21.112 21.112,21.112 11.64,0 21.11,-9.47 21.11,-21.112 z m -27.016,0 c 0,-4.731 3.152,-8.887 5.907,-11.616 2.754,2.726 5.901,6.88 5.901,11.616 0,3.256 -2.648,5.904 -5.904,5.904 -3.256,0 -5.904,-2.648 -5.904,-5.904 z" /><path
       style="fill:#f09100;fill-opacity:1"
       id="path13"
       d="m 251.763,460.469 c 0,-16.969 -16.374,-27.438 -17.07,-27.875 l -4.041,-2.536 -4.041,2.536 c -0.696,0.438 -17.07,10.906 -17.07,27.875 0,11.641 9.47,21.112 21.112,21.112 11.642,0 21.11,-9.47 21.11,-21.112 z m -27.017,0 c 0,-4.731 3.152,-8.887 5.907,-11.616 2.754,2.726 5.901,6.88 5.901,11.616 0,3.256 -2.648,5.904 -5.904,5.904 -3.256,0 -5.904,-2.648 -5.904,-5.904 z" /><path
       style="fill:#f09100;fill-opacity:1"
       id="path15"
       d="m 302.461,460.469 c 0,-16.969 -16.374,-27.438 -17.07,-27.875 l -4.041,-2.536 -4.041,2.536 c -0.697,0.438 -17.07,10.906 -17.07,27.875 0,11.641 9.471,21.112 21.112,21.112 11.639,0 21.11,-9.47 21.11,-21.112 z m -27.017,0 c 0,-4.731 3.152,-8.887 5.907,-11.616 2.754,2.726 5.901,6.88 5.901,11.616 0,3.256 -2.648,5.904 -5.904,5.904 -3.255,0 -5.904,-2.648 -5.904,-5.904 z" /><path
       style="fill:#f09100;fill-opacity:1"
       id="path17"
       d="m 353.159,460.469 c 0,-16.969 -16.374,-27.438 -17.07,-27.875 l -4.041,-2.536 -4.041,2.536 c -0.697,0.438 -17.07,10.906 -17.07,27.875 0,11.641 9.47,21.112 21.112,21.112 11.639,0 21.11,-9.47 21.11,-21.112 z m -27.016,0 c 0,-4.731 3.152,-8.887 5.907,-11.616 2.754,2.726 5.901,6.88 5.901,11.616 0,3.256 -2.648,5.904 -5.904,5.904 -3.256,0 -5.904,-2.648 -5.904,-5.904 z" /><path
       style="fill:#f09100;fill-opacity:1"
       id="path19"
       d="m 403.856,460.469 c 0,-16.969 -16.374,-27.438 -17.07,-27.875 l -4.041,-2.536 -4.041,2.536 c -0.697,0.438 -17.07,10.906 -17.07,27.875 0,11.641 9.47,21.112 21.112,21.112 11.639,0 21.11,-9.47 21.11,-21.112 z m -27.015,0 c 0,-4.731 3.152,-8.887 5.907,-11.616 2.754,2.726 5.901,6.88 5.901,11.616 0,3.256 -2.648,5.904 -5.904,5.904 -3.256,0 -5.904,-2.648 -5.904,-5.904 z" /><rect
       style="fill:#00000f;fill-opacity:0.94117647"
       id="rect21"
       height="15.208"
       width="305.90201"
       y="496.79199"
       x="103.048" /><path
       style="fill:#006df0"
       id="path23"
       d="m 416.556,150.737 0,-15.211 0,-11.659 c 0,-124.25740775 -321.114,-124.10044401 -321.114,0 l 0,11.659 c 0,116.20267 0.001,63.06677 0.001,227.468 0,29.349 23.877,53.228 53.228,53.228 l 214.658,0 c 29.35,0 53.228,-23.878 53.228,-53.228 0,-71.34581 -0.001,-167.0575 -0.001,-212.257 z m -15.208,0 0,55.026 0,157.23 c 0,20.965 -17.055,38.02 -38.02,38.02 l -214.657,0 c -20.965,0 -38.02,-17.055 -38.02,-38.02 l 0,-157.23 0,-55.026 0,-15.211 48.355,0 0,-15.208 -48.249,0 c 0.033,-0.599 0.086,-1.192 0.136,-1.786 0.032,-0.387 0.054,-0.779 0.094,-1.164 0.077,-0.746 0.18,-1.485 0.283,-2.223 0.04,-0.284 0.068,-0.572 0.112,-0.856 0.314,-2.044 0.728,-4.055 1.236,-6.03 0.067,-0.26 0.148,-0.514 0.218,-0.773 0.196,-0.722 0.392,-1.443 0.613,-2.153 0.104,-0.336 0.224,-0.664 0.334,-0.998 0.206,-0.625 0.409,-1.251 0.634,-1.869 0.133,-0.364 0.281,-0.722 0.421,-1.083 0.222,-0.575 0.441,-1.153 0.679,-1.719 0.157,-0.375 0.33,-0.742 0.495,-1.114 0.24,-0.542 0.479,-1.087 0.734,-1.622 0.18,-0.377 0.374,-0.746 0.562,-1.119 0.261,-0.518 0.519,-1.035 0.793,-1.545 0.202,-0.374 0.416,-0.741 0.625,-1.112 0.28,-0.495 0.558,-0.992 0.851,-1.477 0.223,-0.371 0.456,-0.734 0.686,-1.099 0.298,-0.474 0.596,-0.948 0.906,-1.413 0.242,-0.362 0.494,-0.719 0.743,-1.077 0.317,-0.454 0.635,-0.908 0.963,-1.354 0.262,-0.354 0.53,-0.701 0.799,-1.049 0.335,-0.435 0.671,-0.867 1.017,-1.293 0.279,-0.344 0.566,-0.68 0.852,-1.018 0.353,-0.416 0.709,-0.83 1.072,-1.237 0.296,-0.332 0.598,-0.656 0.9,-0.981 0.37,-0.397 0.744,-0.792 1.124,-1.179 0.312,-0.318 0.631,-0.632 0.949,-0.944 0.387,-0.378 0.778,-0.751 1.174,-1.119 0.328,-0.306 0.662,-0.606 0.998,-0.904 0.403,-0.358 0.809,-0.711 1.221,-1.058 0.345,-0.29 0.691,-0.577 1.042,-0.861 0.418,-0.338 0.84,-0.669 1.267,-0.997 0.359,-0.275 0.719,-0.547 1.084,-0.814 0.434,-0.317 0.873,-0.628 1.315,-0.935 0.372,-0.258 0.746,-0.515 1.124,-0.765 0.448,-0.297 0.901,-0.585 1.357,-0.871 0.385,-0.24 0.772,-0.482 1.163,-0.715 0.462,-0.276 0.931,-0.542 1.401,-0.806 0.396,-0.224 0.794,-0.446 1.195,-0.661 0.477,-0.254 0.959,-0.497 1.443,-0.739 0.409,-0.205 0.816,-0.41 1.23,-0.606 0.49,-0.232 0.985,-0.451 1.482,-0.671 0.419,-0.186 0.835,-0.372 1.259,-0.549 0.505,-0.21 1.016,-0.406 1.527,-0.603 0.426,-0.164 0.851,-0.332 1.28,-0.487 0.519,-0.188 1.045,-0.359 1.572,-0.532 0.433,-0.144 0.863,-0.291 1.3,-0.425 0.534,-0.163 1.076,-0.31 1.616,-0.46 0.438,-0.121 0.872,-0.248 1.314,-0.36 0.552,-0.14 1.111,-0.261 1.669,-0.386 0.439,-0.098 0.874,-0.204 1.316,-0.293 0.577,-0.117 1.161,-0.212 1.743,-0.313 0.431,-0.074 0.859,-0.157 1.293,-0.223 0.616,-0.093 1.241,-0.163 1.863,-0.237 0.407,-0.049 0.81,-0.108 1.22,-0.15 0.693,-0.069 1.392,-0.113 2.092,-0.159 0.347,-0.022 0.689,-0.059 1.037,-0.076 1.049,-0.053 2.105,-0.08 3.167,-0.08 l 45.136,0 75.026,0 45.14,0 c 1.063,0 2.118,0.027 3.167,0.08 0.348,0.018 0.69,0.054 1.037,0.076 0.699,0.047 1.399,0.09 2.092,0.159 0.41,0.042 0.812,0.102 1.22,0.15 0.623,0.074 1.247,0.145 1.864,0.237 0.434,0.065 0.862,0.148 1.293,0.223 0.582,0.101 1.166,0.196 1.743,0.313 0.442,0.089 0.877,0.195 1.316,0.293 0.558,0.126 1.117,0.246 1.669,0.386 0.441,0.112 0.876,0.239 1.314,0.36 0.54,0.15 1.082,0.297 1.616,0.46 0.437,0.134 0.867,0.281 1.3,0.425 0.525,0.173 1.052,0.346 1.571,0.532 0.43,0.155 0.855,0.322 1.281,0.487 0.511,0.197 1.022,0.393 1.527,0.603 0.423,0.176 0.841,0.363 1.259,0.549 0.497,0.22 0.993,0.44 1.482,0.671 0.414,0.196 0.821,0.401 1.23,0.606 0.484,0.242 0.966,0.486 1.443,0.739 0.403,0.215 0.799,0.438 1.195,0.661 0.47,0.264 0.939,0.529 1.401,0.806 0.391,0.233 0.777,0.474 1.163,0.715 0.455,0.286 0.909,0.574 1.357,0.871 0.378,0.25 0.751,0.507 1.124,0.765 0.442,0.307 0.881,0.616 1.315,0.935 0.365,0.268 0.725,0.539 1.084,0.814 0.427,0.327 0.85,0.659 1.267,0.997 0.351,0.283 0.699,0.571 1.042,0.861 0.412,0.348 0.818,0.701 1.221,1.058 0.336,0.298 0.668,0.598 0.998,0.904 0.396,0.367 0.787,0.74 1.174,1.119 0.319,0.312 0.637,0.625 0.949,0.944 0.38,0.387 0.754,0.782 1.124,1.179 0.303,0.324 0.604,0.65 0.9,0.981 0.364,0.406 0.719,0.821 1.072,1.237 0.286,0.338 0.573,0.674 0.852,1.018 0.346,0.426 0.682,0.859 1.017,1.293 0.269,0.349 0.537,0.697 0.799,1.049 0.328,0.445 0.646,0.899 0.963,1.354 0.249,0.358 0.501,0.714 0.743,1.077 0.31,0.465 0.608,0.939 0.906,1.413 0.23,0.365 0.463,0.728 0.686,1.099 0.292,0.486 0.571,0.982 0.851,1.477 0.209,0.37 0.423,0.738 0.625,1.112 0.274,0.51 0.532,1.028 0.793,1.545 0.188,0.373 0.381,0.742 0.562,1.119 0.255,0.534 0.494,1.079 0.734,1.622 0.164,0.371 0.337,0.739 0.495,1.114 0.238,0.568 0.457,1.145 0.679,1.719 0.14,0.361 0.288,0.719 0.421,1.083 0.224,0.616 0.428,1.244 0.634,1.869 0.109,0.334 0.229,0.662 0.334,0.998 0.22,0.711 0.418,1.432 0.613,2.153 0.07,0.258 0.151,0.513 0.218,0.773 0.508,1.975 0.922,3.988 1.236,6.03 0.044,0.283 0.071,0.571 0.112,0.856 0.103,0.739 0.206,1.477 0.283,2.223 0.04,0.386 0.061,0.778 0.094,1.164 0.051,0.594 0.102,1.187 0.136,1.786 l -221.96,0 0,15.208 222.062,0 0,15.211 z" /><path
       style="fill:#006df0"
       id="path25"
       d="m 386.14,362.993 0,-204.652 -15.208,0 0,204.652 c 0,4.193 -3.411,7.604 -7.604,7.604 l -48.018,0 0,15.208 48.017,0 c 12.58,0 22.813,-10.234 22.813,-22.812 z" /><path
       style="fill:#006df0"
       id="path27"
       d="M 362.857,102.538 374.26,92.474 C 365.234,82.245 352.255,76.379 338.652,76.379 l -23.342,0 0,15.208 23.342,0 c 9.243,0 18.064,3.991 24.205,10.951 z" /></g><g
     id="g29" /><g
     id="g31" /><g
     id="g33" /><g
     id="g35" /><g
     id="g37" /><g
     id="g39" /><g
     id="g41" /><g
     id="g43" /><g
     id="g45" /><g
     id="g47" /><g
     id="g49" /><g
     id="g51" /><g
     id="g53" /><g
     id="g55" /><g
     id="g57" /></svg>