<?xml version="1.0" encoding="UTF-8" standalone="no"?>
<!-- Generator: Adobe Illustrator 16.0.0, SVG Export Plug-In . SVG Version: 6.00 Build 0)  -->

<svg
   xmlns:dc="http://purl.org/dc/elements/1.1/"
   xmlns:cc="http://creativecommons.org/ns#"
   xmlns:rdf="http://www.w3.org/1999/02/22-rdf-syntax-ns#"
   xmlns:svg="http://www.w3.org/2000/svg"
   xmlns="http://www.w3.org/2000/svg"
   xmlns:sodipodi="http://sodipodi.sourceforge.net/DTD/sodipodi-0.dtd"
   xmlns:inkscape="http://www.inkscape.org/namespaces/inkscape"
   version="1.1"
   id="Capa_1"
   x="0px"
   y="0px"
   width="272.987px"
   height="272.987px"
   viewBox="0 0 272.987 272.987"
   style="enable-background:new 0 0 272.987 272.987;"
   xml:space="preserve"
   inkscape:version="0.91 r13725"
   sodipodi:docname="icon_heating_off.svg"><metadata
     id="metadata17"><rdf:RDF><cc:Work
         rdf:about=""><dc:format>image/svg+xml</dc:format><dc:type
           rdf:resource="http://purl.org/dc/dcmitype/StillImage" /></cc:Work></rdf:RDF></metadata><defs
     id="defs15" /><sodipodi:namedview
     pagecolor="#ffffff"
     bordercolor="#666666"
     borderopacity="1"
     objecttolerance="10"
     gridtolerance="10"
     guidetolerance="10"
     inkscape:pageopacity="0"
     inkscape:pageshadow="2"
     inkscape:window-width="1815"
     inkscape:window-height="1157"
     id="namedview13"
     showgrid="false"
     inkscape:zoom="0.86451003"
     inkscape:cx="136.4935"
     inkscape:cy="136.4935"
     inkscape:window-x="0"
     inkscape:window-y="0"
     inkscape:window-maximized="0"
     inkscape:current-layer="Capa_1" /><g
     style="stroke:#0C40FF;stroke-opacity:1;fill:#0C40FF;fill-opacity:1"
     id="g3"><path
       d="M245.083,87.639c-3.958,0-7.169,3.213-7.169,7.168v28.035h-8.013v-6.389c0-15.887-12.928-28.814-28.811-28.814    c-8.629,0-16.357,3.834-21.646,9.859c-5.288-6.025-13.017-9.859-21.642-9.859c-8.629,0-16.362,3.834-21.646,9.859    c-5.288-6.025-13.019-9.859-21.646-9.859c-8.625,0-16.358,3.834-21.644,9.859c-5.286-6.025-13.019-9.859-21.646-9.859    c-15.885,0-28.812,12.928-28.812,28.814v6.389H27.919c-3.955,0-7.168,3.211-7.168,7.168c0,3.956,3.213,7.169,7.168,7.169h14.478    v106.993c0,15.887,12.928,28.814,28.812,28.814c8.627,0,16.36-3.832,21.646-9.857c5.286,6.025,13.017,9.857,21.644,9.857    s16.358-3.832,21.644-9.857c5.285,6.025,13.019,9.857,21.644,9.857s16.362-3.832,21.646-9.857    c5.283,6.025,13.021,9.857,21.646,9.857c15.887,0,28.814-12.928,28.814-28.814V137.184h15.178c3.957,0,7.168-3.213,7.168-7.168    V94.812C252.252,90.852,249.036,87.639,245.083,87.639z M215.563,137.184v106.993c0,7.985-6.492,14.478-14.473,14.478    s-14.477-6.492-14.477-14.478V137.184v-14.337v-6.389c0-7.983,6.496-14.478,14.477-14.478s14.473,6.494,14.473,14.478v6.389    V137.184z M172.271,244.173c0,7.984-6.496,14.477-14.477,14.477c-7.981,0-14.478-6.492-14.478-14.477V137.184v-14.337v-6.389    c0-7.983,6.496-14.478,14.478-14.478c7.98,0,14.477,6.494,14.477,14.478v6.389v14.337V244.173z M128.982,244.173    c0,7.984-6.494,14.477-14.475,14.477c-7.98,0-14.475-6.492-14.475-14.477V137.184v-14.337v-6.389    c0-7.983,6.495-14.478,14.475-14.478c7.981,0,14.475,6.494,14.475,14.478v6.389v14.337V244.173z M85.69,244.173    c0,7.984-6.497,14.477-14.477,14.477c-7.981,0-14.475-6.492-14.475-14.477V137.184v-14.337v-6.389    c0-7.983,6.494-14.478,14.475-14.478c7.98,0,14.477,6.494,14.477,14.478v6.389v14.337V244.173z"
       id="path5" /><path
       d="M88.472,2.404c-6.461,7.708-9.12,15.87-5.918,25.669c3.16,9.667,12.865,18.533,5.12,28.493    c-5.603,7.201,4.467,17.429,10.135,10.137c6.38-8.203,9.138-16.57,5.918-26.75c-2.905-9.185-12.846-18.197-5.12-27.412    C104.506,5.505,94.42-4.692,88.472,2.404z"
       id="path7" /><path
       d="M140.825,66.702c6.385-8.203,9.138-16.57,5.918-26.75c-2.903-9.185-12.847-18.197-5.12-27.412    c5.899-7.036-4.191-17.233-10.135-10.137c-6.461,7.708-9.119,15.87-5.917,25.669c3.16,9.667,12.865,18.533,5.12,28.493    C125.083,63.767,135.152,73.994,140.825,66.702z"
       id="path9" /><path
       d="M174.493,2.404c-6.459,7.708-9.119,15.87-5.918,25.669c3.164,9.667,12.867,18.533,5.125,28.493    c-5.605,7.201,4.462,17.429,10.132,10.137c6.38-8.203,9.139-16.57,5.918-26.75c-2.907-9.185-12.849-18.197-5.12-27.412    C190.529,5.505,180.444-4.692,174.493,2.404z"
       id="path11" /></g><path
     style="fill:#ff0000;fill-opacity:1;fill-rule:evenodd;stroke:#ff0000;stroke-width:9.97456551;stroke-linecap:round;stroke-linejoin:miter;stroke-miterlimit:4;stroke-dasharray:none;stroke-opacity:1"
     d="M 253.34609,261.44334 C 19.640897,15.013828 19.640897,15.013828 19.640897,15.013828"
     id="path4145"
     inkscape:connector-curvature="0" /></svg>