<?xml version="1.0" encoding="UTF-8" standalone="no"?>
<svg
   xmlns:dc="http://purl.org/dc/elements/1.1/"
   xmlns:cc="http://creativecommons.org/ns#"
   xmlns:rdf="http://www.w3.org/1999/02/22-rdf-syntax-ns#"
   xmlns:svg="http://www.w3.org/2000/svg"
   xmlns="http://www.w3.org/2000/svg"
   xmlns:sodipodi="http://sodipodi.sourceforge.net/DTD/sodipodi-0.dtd"
   xmlns:inkscape="http://www.inkscape.org/namespaces/inkscape"
   width="32"
   height="14"
   id="svg2"
   version="1.1"
   inkscape:version="0.91 r13725"
   sodipodi:docname="yaha_logo_with_text.svg">
  <metadata
     id="metadata22">
    <rdf:RDF>
      <cc:Work
         rdf:about="">
        <dc:format>image/svg+xml</dc:format>
        <dc:type
           rdf:resource="http://purl.org/dc/dcmitype/StillImage" />
        <dc:title></dc:title>
      </cc:Work>
    </rdf:RDF>
  </metadata>
  <sodipodi:namedview
     pagecolor="#ffffff"
     bordercolor="#666666"
     borderopacity="1"
     objecttolerance="10"
     gridtolerance="10"
     guidetolerance="10"
     inkscape:pageopacity="0"
     inkscape:pageshadow="2"
     inkscape:window-width="1600"
     inkscape:window-height="1148"
     id="namedview20"
     showgrid="false"
     inkscape:zoom="22.627417"
     inkscape:cx="13.376793"
     inkscape:cy="13.971309"
     inkscape:window-x="-8"
     inkscape:window-y="-8"
     inkscape:window-maximized="1"
     inkscape:current-layer="yaha_icon_style"
     showguides="true"
     inkscape:guide-bbox="true">
    <sodipodi:guide
       position="3.4609375,-0.3671875"
       orientation="1,0"
       id="guide4144" />
    <sodipodi:guide
       position="31.632813,0.0859375"
       orientation="1,0"
       id="guide4146" />
  </sodipodi:namedview>
  <style
     id="style4">
		#yaha_logo_text{
			font-size:100px;
			font-style:normal;
			font-variant:normal;
			font-weight:normal;
			font-stretch:normal;
			text-align:start;
			line-height:125%;
			letter-spacing:0px;
			word-spacing:0px:
			writing-mode:lr-tb;
			text-anchor:start;
			fill:#000000;
			fill-opacity:1;
			stroke:none;
			font-family:Arial Black;
		}
		#yaha_logo_triangle{
			fill:#3F00FF;
			stroke:none;
		}
	</style>
  <defs
     id="defs6" />
  <!-- build log -->
  <g
     id="yaha_icon_style"
     transform="translate(0,-114)">
    <g
       id="yaha_logo"
       transform="translate(0.26104854,23.171796)">
      <title
         id="title4173">Yaha Logo</title>
      <path
         d="m -0.1171875,91.251953 2.4667969,0 1.9921875,3.117188 1.9921875,-3.117188 2.4726562,0 -3.3339844,5.0625 0,3.685547 -2.2558593,0 0,-3.685547 -3.3339844,-5.0625 z"
         style="font-style:normal;font-variant:normal;font-weight:bold;font-stretch:normal;font-family:sans-serif;-inkscape-font-specification:'sans-serif Bold'"
         id="path3353"
         inkscape:connector-curvature="0" />
      <path
         d="m 11.53125,97.046875 q -0.65625,0 -0.990234,0.222656 -0.328125,0.222656 -0.328125,0.65625 0,0.398438 0.263672,0.626953 0.269531,0.222657 0.74414,0.222657 0.591797,0 0.996094,-0.421875 0.404297,-0.427735 0.404297,-1.066407 l 0,-0.240234 -1.089844,0 z m 3.205078,-0.791016 0,3.744141 -2.115234,0 0,-0.972656 q -0.421875,0.597656 -0.949219,0.873047 -0.527344,0.269529 -1.283203,0.269529 -1.0195314,0 -1.6582032,-0.591795 -0.6328125,-0.597656 -0.6328125,-1.546875 0,-1.154297 0.7910156,-1.693359 0.796875,-0.539063 2.4960941,-0.539063 l 1.236328,0 0,-0.164062 q 0,-0.498047 -0.392578,-0.726563 -0.392578,-0.234375 -1.22461,-0.234375 -0.673828,0 -1.253906,0.134766 -0.5800781,0.134765 -1.078125,0.404297 l 0,-1.59961 q 0.6738281,-0.164062 1.353516,-0.246094 0.679687,-0.08789 1.359375,-0.08789 1.77539,0 2.560547,0.703125 0.791015,0.697265 0.791015,2.273437 z"
         style="font-style:normal;font-variant:normal;font-weight:bold;font-stretch:normal;font-family:sans-serif;-inkscape-font-specification:'sans-serif Bold'"
         id="path3355"
         inkscape:connector-curvature="0" />
      <path
         d="m 23.285156,96.003906 0,3.996094 -2.109375,0 0,-0.650391 0,-2.396484 q 0,-0.861328 -0.04102,-1.183594 -0.03516,-0.322265 -0.128907,-0.474609 -0.123047,-0.205078 -0.333984,-0.316406 -0.210938,-0.117188 -0.480469,-0.117188 -0.65625,0 -1.03125,0.509766 -0.375,0.503906 -0.375,1.40039 l 0,3.228516 -2.097656,0 0,-9.117188 2.097656,0 0,3.515625 q 0.47461,-0.574218 1.007813,-0.84375 0.533203,-0.27539 1.177734,-0.27539 1.136719,0 1.722656,0.697265 0.591797,0.697266 0.591797,2.027344 z"
         style="font-style:normal;font-variant:normal;font-weight:bold;font-stretch:normal;font-family:sans-serif;-inkscape-font-specification:'sans-serif Bold'"
         id="path3357"
         inkscape:connector-curvature="0" />
      <path
         d="m 28.183594,97.046875 q -0.65625,0 -0.990235,0.222656 -0.328125,0.222656 -0.328125,0.65625 0,0.398438 0.263672,0.626953 0.269531,0.222657 0.744141,0.222657 0.591797,0 0.996094,-0.421875 0.404296,-0.427735 0.404296,-1.066407 l 0,-0.240234 -1.089843,0 z m 3.205078,-0.791016 0,3.744141 -2.115235,0 0,-0.972656 q -0.421875,0.597656 -0.949218,0.873047 -0.527344,0.269529 -1.283203,0.269529 -1.019532,0 -1.658204,-0.591795 Q 24.75,98.980469 24.75,98.03125 q 0,-1.154297 0.791016,-1.693359 0.796875,-0.539063 2.496093,-0.539063 l 1.236328,0 0,-0.164062 q 0,-0.498047 -0.392578,-0.726563 -0.392578,-0.234375 -1.224609,-0.234375 -0.673828,0 -1.253906,0.134766 -0.580078,0.134765 -1.078125,0.404297 l 0,-1.59961 q 0.673828,-0.164062 1.353515,-0.246094 0.679688,-0.08789 1.359375,-0.08789 1.775391,0 2.560547,0.703125 0.791016,0.697265 0.791016,2.273437 z"
         style="font-style:normal;font-variant:normal;font-weight:bold;font-stretch:normal;font-family:sans-serif;-inkscape-font-specification:'sans-serif Bold'"
         id="path3359"
         inkscape:connector-curvature="0" />
      <g
         style="fill:#0c40ff;fill-opacity:1;stroke:none"
         transform="matrix(0.14127947,0,0,0.13270613,-1.1832069,87.752593)"
         id="yaha_logo_triangle">
        <polygon
           style="fill:#0c40ff;fill-opacity:1"
           id="polygon18"
           points="53.2,24.5 39.16,48 25,24.5 " />
      </g>
    </g>
    <g
       style="font-style:normal;font-weight:normal;font-size:3.39770484px;line-height:125%;font-family:sans-serif;letter-spacing:0px;word-spacing:0px;display:inline;fill:#0c40ff;fill-opacity:0.94117647;stroke:none;stroke-width:1px;stroke-linecap:butt;stroke-linejoin:miter;stroke-opacity:1"
       id="text4211-6"
       transform="translate(0.02209708,0.61871843)">
      <path
         d="m 5.0382532,124.23353 0,0.32683 q -0.1907891,-0.0912 -0.3600107,-0.13604 -0.1692217,-0.0448 -0.32683,-0.0448 -0.2737409,0 -0.4230541,0.10618 -0.1476542,0.10618 -0.1476542,0.30194 0,0.16425 0.097883,0.24886 0.099542,0.0829 0.3749421,0.13438 l 0.2024023,0.0415 q 0.374942,0.0713 0.5524588,0.25218 0.1791759,0.17917 0.1791759,0.48112 0,0.36001 -0.2422192,0.54582 -0.2405602,0.18581 -0.7067492,0.18581 -0.1758577,0 -0.374942,-0.0398 -0.1974252,-0.0398 -0.4097818,-0.1178 l 0,-0.34507 q 0.2040614,0.11447 0.3998276,0.17253 0.1957662,0.0581 0.3848962,0.0581 0.2870132,0 0.4429625,-0.11281 0.1559494,-0.11282 0.1559494,-0.32186 0,-0.18249 -0.1128144,-0.28535 -0.1111554,-0.10286 -0.3666469,-0.15429 l -0.2040614,-0.0398 q -0.3749419,-0.0747 -0.5425045,-0.234 Q 3.44392,125.09789 3.44392,124.8142 q 0,-0.32849 0.2306059,-0.51762 0.232265,-0.18913 0.6387287,-0.18913 0.1741988,0 0.3550336,0.0315 0.1808349,0.0315 0.369965,0.0946 z"
         id="path4188"
         inkscape:connector-curvature="0" />
      <path
         d="m 5.6968902,124.77106 0.3052626,0 0,1.85812 -0.3052626,0 0,-1.85812 z m 0,-0.72334 0.3052626,0 0,0.38656 -0.3052626,0 0,-0.38656 z"
         id="path4190"
         inkscape:connector-curvature="0" />
      <path
         d="m 8.0859015,125.12775 q 0.1144734,-0.20572 0.2737409,-0.3036 0.1592674,-0.0979 0.374942,-0.0979 0.2903312,0 0.4479396,0.20406 0.1576084,0.2024 0.1576084,0.57734 l 0,1.12151 -0.3069216,0 0,-1.11155 q 0,-0.26711 -0.094565,-0.39651 -0.094565,-0.12941 -0.2886722,-0.12941 -0.2372421,0 -0.3749421,0.15761 -0.1376999,0.15761 -0.1376999,0.42969 l 0,1.05017 -0.3069216,0 0,-1.11155 q 0,-0.26877 -0.094565,-0.39651 -0.094565,-0.12941 -0.2919903,-0.12941 -0.233924,0 -0.3716239,0.15927 -0.1377,0.15761 -0.1377,0.42803 l 0,1.05017 -0.3069216,0 0,-1.85812 0.3069216,0 0,0.28867 q 0.1045193,-0.17088 0.2505144,-0.25217 0.1459951,-0.0813 0.3467384,-0.0813 0.2024024,0 0.3434204,0.10286 0.142677,0.10286 0.2106975,0.29862 z"
         id="path4192"
         inkscape:connector-curvature="0" />
      <path
         d="m 10.245966,126.35046 0,0.98547 -0.3069218,0 0,-2.56487 0.3069218,0 0,0.28204 q 0.09622,-0.16591 0.242219,-0.24554 0.147654,-0.0813 0.351716,-0.0813 0.338443,0 0.54914,0.26876 0.212357,0.26876 0.212357,0.70675 0,0.43799 -0.212357,0.70675 -0.210697,0.26876 -0.54914,0.26876 -0.204062,0 -0.351716,-0.0796 -0.145995,-0.0813 -0.242219,-0.2472 z m 1.038556,-0.64868 q 0,-0.33678 -0.139359,-0.52757 -0.1377,-0.19245 -0.379919,-0.19245 -0.242219,0 -0.381578,0.19245 -0.1377,0.19079 -0.1377,0.52757 0,0.33678 0.1377,0.52923 0.139359,0.19079 0.381578,0.19079 0.242219,0 0.379919,-0.19079 0.139359,-0.19245 0.139359,-0.52923 z"
         id="path4194"
         inkscape:connector-curvature="0" />
      <path
         d="m 12.107404,124.04772 0.305262,0 0,2.58146 -0.305262,0 0,-2.58146 z"
         id="path4196"
         inkscape:connector-curvature="0" />
      <path
         d="m 13.049736,124.77106 0.305263,0 0,1.85812 -0.305263,0 0,-1.85812 z m 0,-0.72334 0.305263,0 0,0.38656 -0.305263,0 0,-0.38656 z"
         id="path4198"
         inkscape:connector-curvature="0" />
      <path
         d="m 14.932742,124.04772 0,0.25383 -0.291991,0 q -0.164244,0 -0.228947,0.0664 -0.06304,0.0664 -0.06304,0.2389 l 0,0.16424 0.502688,0 0,0.23724 -0.502688,0 0,1.62088 -0.306922,0 0,-1.62088 -0.29199,0 0,-0.23724 0.29199,0 0,-0.1294 q 0,-0.31024 0.144337,-0.45126 0.144336,-0.14268 0.457893,-0.14268 l 0.288673,0 z"
         id="path4200"
         inkscape:connector-curvature="0" />
      <path
         d="m 15.903277,126.80172 q -0.129405,0.33181 -0.252174,0.43301 -0.122768,0.1012 -0.328489,0.1012 l -0.243878,0 0,-0.25549 0.179176,0 q 0.126087,0 0.195766,-0.0597 0.06968,-0.0597 0.15429,-0.28203 l 0.05475,-0.13936 -0.751544,-1.82826 0.323512,0 0.580663,1.45332 0.580662,-1.45332 0.323512,0 -0.816245,2.03066 z"
         id="path4202"
         inkscape:connector-curvature="0" />
      <path
         d="m 18.999037,126.80172 q -0.129405,0.33181 -0.252173,0.43301 -0.122769,0.1012 -0.328489,0.1012 l -0.243879,0 0,-0.25549 0.179176,0 q 0.126087,0 0.195766,-0.0597 0.06968,-0.0597 0.154291,-0.28203 l 0.05475,-0.13936 -0.751543,-1.82826 0.323512,0 0.580662,1.45332 0.580663,-1.45332 0.323512,0 -0.816246,2.03066 z"
         id="path4204"
         inkscape:connector-curvature="0" />
      <path
         d="m 20.956699,124.98508 q -0.245538,0 -0.388215,0.19244 -0.142677,0.19079 -0.142677,0.52426 0,0.33347 0.141018,0.52591 0.142677,0.19079 0.389874,0.19079 0.243878,0 0.386555,-0.19244 0.142677,-0.19245 0.142677,-0.52426 0,-0.33015 -0.142677,-0.5226 -0.142677,-0.1941 -0.386555,-0.1941 z m 0,-0.25881 q 0.398168,0 0.625456,0.25881 0.227288,0.25881 0.227288,0.7167 0,0.45623 -0.227288,0.7167 -0.227288,0.25881 -0.625456,0.25881 -0.399828,0 -0.627116,-0.25881 -0.225629,-0.26047 -0.225629,-0.7167 0,-0.45789 0.225629,-0.7167 0.227288,-0.25881 0.627116,-0.25881 z"
         id="path4206"
         inkscape:connector-curvature="0" />
      <path
         d="m 22.282268,125.89589 0,-1.12483 0.305262,0 0,1.11321 q 0,0.26379 0.102861,0.39651 0.10286,0.13107 0.30858,0.13107 0.247196,0 0.389874,-0.15761 0.144336,-0.15761 0.144336,-0.42969 l 0,-1.05349 0.305262,0 0,1.85812 -0.305262,0 0,-0.28535 q -0.111156,0.16922 -0.25881,0.25217 -0.145995,0.0813 -0.340102,0.0813 -0.320194,0 -0.486098,-0.19908 -0.165903,-0.19909 -0.165903,-0.58232 z"
         id="path4208"
         inkscape:connector-curvature="0" />
      <path
         d="m 25.547249,125.05642 q -0.05143,-0.0299 -0.112814,-0.0431 -0.05973,-0.0149 -0.132723,-0.0149 -0.258809,0 -0.398168,0.16922 -0.1377,0.16756 -0.1377,0.48278 l 0,0.97883 -0.306922,0 0,-1.85812 0.306922,0 0,0.28867 q 0.09622,-0.16922 0.250514,-0.25051 0.15429,-0.0829 0.374942,-0.0829 0.03152,0 0.06968,0.005 0.03816,0.003 0.08461,0.0116 l 0.0017,0.31356 z"
         id="path4210"
         inkscape:connector-curvature="0" />
      <path
         d="m 26.952454,124.04772 0.305262,0 0,2.58146 -0.305262,0 0,-2.58146 z"
         id="path4212"
         inkscape:connector-curvature="0" />
      <path
         d="m 27.894785,124.77106 0.305263,0 0,1.85812 -0.305263,0 0,-1.85812 z m 0,-0.72334 0.305263,0 0,0.38656 -0.305263,0 0,-0.38656 z"
         id="path4214"
         inkscape:connector-curvature="0" />
      <path
         d="m 29.777791,124.04772 0,0.25383 -0.29199,0 q -0.164244,0 -0.228947,0.0664 -0.06304,0.0664 -0.06304,0.2389 l 0,0.16424 0.502688,0 0,0.23724 -0.502688,0 0,1.62088 -0.306922,0 0,-1.62088 -0.29199,0 0,-0.23724 0.29199,0 0,-0.1294 q 0,-0.31024 0.144336,-0.45126 0.144337,-0.14268 0.457894,-0.14268 l 0.288672,0 z"
         id="path4216"
         inkscape:connector-curvature="0" />
      <path
         d="m 31.62098,125.62381 0,0.14931 -1.403544,0 q 0.01991,0.31522 0.18913,0.48112 0.170881,0.16424 0.474484,0.16424 0.175858,0 0.340102,-0.0431 0.165904,-0.0431 0.328489,-0.12941 l 0,0.28868 q -0.164244,0.0697 -0.336784,0.10617 -0.172539,0.0365 -0.350056,0.0365 -0.444622,0 -0.70509,-0.25881 -0.25881,-0.25881 -0.25881,-0.70011 0,-0.45623 0.245537,-0.72334 0.247197,-0.26876 0.665274,-0.26876 0.374942,0 0.592275,0.24222 0.218993,0.24056 0.218993,0.65532 z m -0.305263,-0.0896 q -0.0033,-0.25052 -0.141018,-0.39983 -0.13604,-0.14931 -0.361669,-0.14931 -0.255492,0 -0.409782,0.14433 -0.152631,0.14434 -0.175858,0.40647 l 1.088327,-0.002 z"
         id="path4218"
         inkscape:connector-curvature="0" />
    </g>
  </g>
</svg>
