<?xml version="1.0" encoding="UTF-8" standalone="no"?>
<svg
   xmlns:dc="http://purl.org/dc/elements/1.1/"
   xmlns:cc="http://creativecommons.org/ns#"
   xmlns:rdf="http://www.w3.org/1999/02/22-rdf-syntax-ns#"
   xmlns:svg="http://www.w3.org/2000/svg"
   xmlns="http://www.w3.org/2000/svg"
   xml:space="preserve"
   style="enable-background:new 0 0 485.211 485.211;"
   viewBox="0 0 485.211 485.211"
   height="512px"
   width="512px"
   y="0px"
   x="0px"
   id="Capa_1"
   version="1.1"><metadata
     id="metadata41"><rdf:RDF><cc:Work
         rdf:about=""><dc:format>image/svg+xml</dc:format><dc:type
           rdf:resource="http://purl.org/dc/dcmitype/StillImage" /><dc:title></dc:title></cc:Work></rdf:RDF></metadata><defs
     id="defs39" /><g
     id="g3"><path
       id="path5"
       fill="#a0a0a0"
       d="M424.025,217.671c0.064-1.836,0.536-3.554,0.536-5.391c0-66.991-54.315-121.304-121.307-121.304   c-45.425,0-84.546,25.291-105.336,62.252c-5.185-0.919-10.484-1.601-15.964-1.601c-39.742,0-73.18,25.648-85.559,61.186   c-1.804-0.117-3.554-0.532-5.418-0.532C40.75,212.28,0,253.033,0,303.256c0,50.228,40.75,90.979,90.978,90.979h303.258   c50.227,0,90.976-40.752,90.976-90.979C485.211,263.516,459.569,230.05,424.025,217.671z" /></g><g
     id="g7" /><g
     id="g9" /><g
     id="g11" /><g
     id="g13" /><g
     id="g15" /><g
     id="g17" /><g
     id="g19" /><g
     id="g21" /><g
     id="g23" /><g
     id="g25" /><g
     id="g27" /><g
     id="g29" /><g
     id="g31" /><g
     id="g33" /><g
     id="g35" /></svg>