<?xml version="1.0" encoding="iso-8859-1"?>
<!-- Generator: Adobe Illustrator 16.0.0, SVG Export Plug-In . SVG Version: 6.00 Build 0)  -->
<!DOCTYPE svg PUBLIC "-//W3C//DTD SVG 1.1//EN" "http://www.w3.org/Graphics/SVG/1.1/DTD/svg11.dtd">
<svg version="1.1" id="Capa_1" xmlns="http://www.w3.org/2000/svg" xmlns:xlink="http://www.w3.org/1999/xlink" x="0px" y="0px"
	 width="63.973px" height="63.973px" viewBox="0 0 63.973 63.973" style="enable-background:new 0 0 63.973 63.973;"
	 xml:space="preserve">
	<g style="stroke:#0C40FF;stroke-opacity:1;fill:#0C40FF;fill-opacity:1">
		<path d="M17.19,18.122C17.191,18.122,17.191,18.122,17.19,18.122c1.078,1.074,2.163,2.3,3.224,3.644
			c6.197,7.854,9.966,12.059,13.008,14.511c0.002,0.002,0.004,0.003,0.006,0.005c0.01,0.008,0.021,0.015,0.031,0.022
			c3.977,3.194,6.623,3.174,10.102,2.008c4.146-1.387,18.488-10.722,20.412-11.98c-0.141-0.173-0.234-0.384-0.234-0.624
			c0-10.786-6.881-19.563-15.354-19.62L11.8,14.093C13.54,14.937,15.34,16.279,17.19,18.122C17.19,18.121,17.19,18.121,17.19,18.122
			z M58.129,19.896c1.877,0,3.404,1.527,3.404,3.405s-1.527,3.405-3.404,3.405c-1.879,0-3.406-1.527-3.406-3.405
			S56.25,19.896,58.129,19.896z"/>
		<circle cx="58.129" cy="23.301" r="1.405"/>
		<path d="M14.502,18.348c-3.222-2.817-6.139-3.856-8.687-3.069c-3.334,1.027-5.27,5.021-5.704,7.294
			c-0.465,2.417,0.479,7.324,3.726,9.201C5.592,25.121,9.604,20.106,14.502,18.348z"/>
		<path d="M18.379,30.384c-2.729,0-5.033,4.064-5.033,8.875c0,4.811,2.306,8.875,5.033,8.875c2.729,0,5.033-4.064,5.033-8.875
			C23.412,34.448,21.107,30.384,18.379,30.384z M21.962,38.727c0.047,0.621,0.358,6.1-2.965,7.449
			c-0.123,0.049-0.25,0.072-0.376,0.072c-0.396,0-0.77-0.234-0.927-0.624c-0.208-0.513,0.039-1.095,0.551-1.304
			c1.688-0.686,1.812-4.25,1.723-5.445c-0.041-0.55,0.372-1.029,0.923-1.07C21.438,37.768,21.921,38.176,21.962,38.727z"/>
		<path d="M31.82,37.545c-3.103-2.584-6.905-6.848-12.978-14.542c-0.888-1.125-1.79-2.142-2.688-3.067
			c-4.909,1.198-9.006,6.274-10.583,13.16c0.021,0.156,0.021,0.317-0.037,0.475c-0.026,0.068-0.066,0.129-0.104,0.188
			c-0.36,1.787-0.551,3.635-0.551,5.502c0,10.975,8.169,18.625,15.5,18.625c0.646,0,1.264-0.084,1.865-0.205l2.648-0.994
			c4.352-2.502,6.985-8.791,6.985-17.426C31.879,38.704,31.856,38.135,31.82,37.545z M18.379,50.135
			c-3.944,0-7.033-4.777-7.033-10.875c0-6.099,3.089-10.875,7.033-10.875s7.033,4.777,7.033,10.875
			C25.412,45.357,22.323,50.135,18.379,50.135z"/>
		<path d="M39.833,41.033c-1.879,0-3.793-0.562-5.957-1.967c0,0.063,0.004,0.129,0.004,0.193c0,6.623-1.493,11.988-4.101,15.594
			l25.14-9.428c4.865-2.635,8.248-9.117,8.748-16.509c-4.26,2.759-15.625,10.003-19.471,11.29
			C42.694,40.71,41.27,41.033,39.833,41.033z"/>
	</g>
</svg>
