<?xml version="1.0" encoding="iso-8859-1"?>
<!-- Generator: Adobe Illustrator 19.0.0, SVG Export Plug-In . SVG Version: 6.00 Build 0)  -->
<svg version="1.1" xmlns="http://www.w3.org/2000/svg" xmlns:xlink="http://www.w3.org/1999/xlink" x="0px" y="0px"
	 viewBox="0 0 502.665 502.665" style="enable-background:new 0 0 502.665 502.665;" xml:space="preserve">
<g style="stroke:#0C40FF;stroke-opacity:1;fill:#0C40FF;fill-opacity:1">
			<path d="M466.965,41.006H275.783c2.092-3.926,3.581-8.197,3.581-12.964C279.364,12.554,266.81,0,251.322,0
				S223.28,12.554,223.28,28.042c0,4.767,1.488,9.017,3.581,12.964H35.744c-14.237,0-25.799,11.605-25.799,25.799v284.389
				c0,14.194,11.562,25.82,25.777,25.82h156.28l-30.35,107.056c-2.114,7.42,2.351,14.668,9.944,16.049l12.08,2.308
				c7.593,1.402,15.509-3.516,17.602-10.893l32.486-114.541h35.16l32.507,114.519c2.071,7.399,10.03,12.317,17.602,10.893
				l12.015-2.308c7.593-1.381,12.058-8.628,9.944-16.049l-30.35-107.034h156.323c14.15,0,25.755-11.627,25.755-25.82V66.805
				C492.721,52.633,481.137,41.006,466.965,41.006z M443.647,326.711H58.975V85.981h384.672V326.711z"/>
			<path d="M104.317,286.309c11.044,0,19.996-8.952,19.996-19.996c0-2.006-0.582-3.818-1.143-5.63
				c25.54-20.6,70.687-56.925,91.244-72.758c3.257,2.286,7.01,3.926,11.282,3.926c3.538,0,6.687-1.165,9.577-2.783
				c13.223,11.238,35.7,30.35,51.684,43.918c-0.216,1.143-0.69,2.2-0.69,3.408c0,11.066,8.973,20.018,20.018,20.018
				c11.087,0,20.039-8.952,20.039-20.018c0-1.963-0.582-3.732-1.122-5.522l51.662-46.614c2.783,1.445,5.803,2.481,9.146,2.481
				c11.044,0,19.975-8.952,19.975-19.996c0-11.023-8.93-19.975-19.975-19.975c-11.044,0-19.975,8.952-19.975,19.975
				c0,2.632,0.561,5.112,1.488,7.42c-14.431,13.029-36.713,33.133-50.605,45.687c-3.128-2.006-6.644-3.494-10.634-3.494
				c-4.702,0-8.844,1.877-12.252,4.595c-13.201-11.217-34.535-29.336-49.721-42.236c0.798-2.157,1.381-4.422,1.381-6.838
				c0-11.044-8.952-19.975-19.975-19.975s-19.996,8.952-19.996,19.996c0,2.438,0.582,4.702,1.381,6.838l-91.719,71.356
				c-3.192-2.2-6.881-3.775-11.066-3.775c-11.044,0-19.996,8.952-19.996,19.996C84.321,277.357,93.273,286.309,104.317,286.309z"/>
</g>
</svg>
