<?xml version="1.0" encoding="iso-8859-1"?>
<!-- Generator: Adobe Illustrator 16.0.0, SVG Export Plug-In . SVG Version: 6.00 Build 0)  -->
<!DOCTYPE svg PUBLIC "-//W3C//DTD SVG 1.1//EN" "http://www.w3.org/Graphics/SVG/1.1/DTD/svg11.dtd">
<svg version="1.1" id="Capa_1" xmlns="http://www.w3.org/2000/svg" xmlns:xlink="http://www.w3.org/1999/xlink" x="0px" y="0px"
	 width="367.341px" height="367.34px" viewBox="0 0 367.341 367.34" style="enable-background:new 0 0 367.341 367.34;"
	 xml:space="preserve">
	<g style="stroke:#0C40FF;stroke-opacity:1;fill:#0C40FF;fill-opacity:1">
		<path d="M43.915,156.713l-10.172,3.404c0,0-1.752,0.841-2.561-1.574c-0.944-2.819-3.775-11.279-3.775-11.279
			c-1.617-4.83-6.891-7.459-11.721-5.843l-9.367,3.136c-4.829,1.616-7.458,6.891-5.842,11.72l26.36,78.915
			c1.616,4.829,6.891,7.458,11.721,5.842l9.366-3.135c4.83-1.617,7.459-6.892,5.843-11.721c0,0-2.828-8.447-3.771-11.264
			c-0.697-2.085,1.092-2.815,1.092-2.815l10.172-3.404c7.729-2.586,11.935-11.024,9.348-18.753l-7.94-23.882
			C60.082,158.332,51.644,154.126,43.915,156.713z"/>
		<path d="M308.035,145.831L271.16,37.953c-2.355-6.255-11.021-8.835-19.256-5.733L39.523,111.989
			c-8.235,3.101-15.417,12.284-10.691,17.01c1.48,1.48,15.107,3.711,31.719,3.824c1.343,0.01,3.833-0.074,5.076,2.956l27.402,82.018
			c2.767,8.266,12.754,12.441,22.195,9.282l180.675-60.474C305.341,163.444,310.802,154.097,308.035,145.831z"/>
		<g>
			<path d="M358.207,240.034h-5.337c-5.023,0-9.134,4.11-9.134,9.135v29.705c-0.063-0.001,0.086,0.525-0.561,0.525h-69.375
				c-1.209,0-0.972,0.819-0.896,1.234c0.289,1.601,0.442,3.247,0.442,4.93c0,6.199-2.035,11.932-5.467,16.568
				c-0.218,0.295-0.622,0.871,0.67,0.871h74.604c0.426,0,0.581,0.131,0.581,0.433v23.866c0,5.023,4.109,9.134,9.134,9.134h5.337
				c5.022,0,9.134-4.109,9.134-9.134v-78.134C367.341,244.145,363.23,240.034,358.207,240.034z"/>
			<path d="M233.67,216.2c-1.55-4.777-6.729-7.42-11.507-5.869l-5.075,1.646c-4.779,1.55-7.42,6.729-5.87,11.506l13.5,41.62
				c0.531,0.875,1.135,0.55,1.509,0.196c5.008-4.747,11.764-7.666,19.19-7.666c0.575,0,1.676-0.093,1.475-0.671L233.67,216.2z"/>
		</g>
		<circle cx="245.418" cy="285.564" r="18.813"/>
	</g>
</svg>
