<?xml version="1.0" encoding="UTF-8" standalone="no"?>
<svg
   xmlns:dc="http://purl.org/dc/elements/1.1/"
   xmlns:cc="http://creativecommons.org/ns#"
   xmlns:rdf="http://www.w3.org/1999/02/22-rdf-syntax-ns#"
   xmlns:svg="http://www.w3.org/2000/svg"
   xmlns="http://www.w3.org/2000/svg"
   xml:space="preserve"
   style="enable-background:new 0 0 367.415 367.415;"
   viewBox="0 0 367.415 367.415"
   height="512px"
   width="512px"
   y="0px"
   x="0px"
   id="Capa_1"
   version="1.1"><metadata
     id="metadata41"><rdf:RDF><cc:Work
         rdf:about=""><dc:format>image/svg+xml</dc:format><dc:type
           rdf:resource="http://purl.org/dc/dcmitype/StillImage" /><dc:title></dc:title></cc:Work></rdf:RDF></metadata><defs
     id="defs39" /><g
     transform="matrix(0.55158294,0.55158294,-0.55158294,0.55158294,167.17141,-18.953406)"
     id="g3"><path
       style="fill:#0c40ff"
       id="path5"
       d="m 367.334,10.256 -36.381,278.361 c -0.266,2.039 -1.205,3.866 -2.583,5.243 -1.365,1.359 -3.15,2.288 -5.159,2.571 -4.037,0.567 -7.962,-1.631 -9.588,-5.379 L 265.161,179.294 79.702,364.754 c -3.546,3.547 -9.297,3.547 -12.844,0 L 2.664,300.558 c -3.546,-3.553 -3.546,-9.292 0,-12.839 L 188.12,102.257 76.368,53.795 C 72.62,52.166 70.419,48.244 70.986,44.201 71.55,40.158 74.739,36.984 78.8,36.458 L 357.156,0.078 c 2.796,-0.37 5.604,0.585 7.595,2.577 1.998,1.998 2.95,4.805 2.583,7.601 z" /></g><g
     id="g7" /><g
     id="g9" /><g
     id="g11" /><g
     id="g13" /><g
     id="g15" /><g
     id="g17" /><g
     id="g19" /><g
     id="g21" /><g
     id="g23" /><g
     id="g25" /><g
     id="g27" /><g
     id="g29" /><g
     id="g31" /><g
     id="g33" /><g
     id="g35" /></svg>