<?xml version="1.0" encoding="UTF-8" standalone="no"?>
<svg
   xmlns:dc="http://purl.org/dc/elements/1.1/"
   xmlns:cc="http://creativecommons.org/ns#"
   xmlns:rdf="http://www.w3.org/1999/02/22-rdf-syntax-ns#"
   xmlns:svg="http://www.w3.org/2000/svg"
   xmlns="http://www.w3.org/2000/svg"
   xml:space="preserve"
   style="enable-background:new 0 0 28.884 28.883;"
   viewBox="0 0 28.884 28.883"
   height="512px"
   width="512px"
   y="0px"
   x="0px"
   id="Capa_1"
   version="1.1"><metadata
     id="metadata53"><rdf:RDF><cc:Work
         rdf:about=""><dc:format>image/svg+xml</dc:format><dc:type
           rdf:resource="http://purl.org/dc/dcmitype/StillImage" /><dc:title></dc:title></cc:Work></rdf:RDF></metadata><defs
     id="defs51" /><path
     style="fill:#a0a0a0"
     id="path7"
     d="M 24.91,6.899 C 24.525,3.843 21.947,1.472 18.792,1.472 17.283,1.472 15.92,2.031 14.847,2.925 13.836,1.635 12.282,0.788 10.517,0.788 7.881,0.788 5.685,2.639 5.137,5.109 2.271,5.309 0,7.672 0,10.588 c 0,3.046 2.471,5.517 5.519,5.517 0.647,0 1.262,-0.132 1.839,-0.338 1.005,1.38 2.62,2.286 4.456,2.286 1.123,0 2.165,-0.342 3.037,-0.918 0.994,0.968 2.346,1.567 3.842,1.567 2.203,0 4.09,-1.303 4.975,-3.169 0.27,0.053 0.548,0.084 0.834,0.084 2.419,0 4.382,-1.962 4.382,-4.38 C 28.882,8.959 27.133,7.109 24.91,6.899 Z" /><path
     style="fill:#0c40ff;fill-opacity:1"
     id="path9"
     d="m 5.656,18.706 c 0,0 -1.696,2.76 -1.696,3.695 0,0.935 0.76,1.695 1.696,1.695 0.936,0 1.696,-0.76 1.696,-1.695 0,-0.935 -1.696,-3.695 -1.696,-3.695 z" /><path
     style="fill:#0c40ff;fill-opacity:1"
     id="path11"
     d="m 8.352,26.401 c 0,0.938 0.76,1.695 1.696,1.695 0.936,0 1.696,-0.76 1.696,-1.695 0,-0.935 -1.696,-3.695 -1.696,-3.695 0,0 -1.696,2.757 -1.696,3.695 z" /><path
     style="fill:#0c40ff;fill-opacity:1"
     id="path13"
     d="m 14.441,18.706 c 0,0 -1.696,2.76 -1.696,3.695 0,0.935 0.76,1.695 1.696,1.695 0.936,0 1.696,-0.76 1.696,-1.695 0,-0.935 -1.696,-3.695 -1.696,-3.695 z" /><path
     style="fill:#0c40ff;fill-opacity:1"
     id="path15"
     d="m 17.137,26.401 c 0,0.938 0.76,1.695 1.696,1.695 0.936,0 1.696,-0.76 1.696,-1.695 0,-0.935 -1.696,-3.695 -1.696,-3.695 0,0 -1.696,2.757 -1.696,3.695 z" /><path
     style="fill:#0c40ff;fill-opacity:1"
     id="path17"
     d="m 21.529,22.401 c 0,0.938 0.761,1.695 1.697,1.695 0.936,0 1.695,-0.76 1.695,-1.695 0,-0.935 -1.695,-3.695 -1.695,-3.695 0,0 -1.697,2.757 -1.697,3.695 z" /><g
     id="g19" /><g
     id="g21" /><g
     id="g23" /><g
     id="g25" /><g
     id="g27" /><g
     id="g29" /><g
     id="g31" /><g
     id="g33" /><g
     id="g35" /><g
     id="g37" /><g
     id="g39" /><g
     id="g41" /><g
     id="g43" /><g
     id="g45" /><g
     id="g47" /></svg>