<?xml version="1.0" encoding="UTF-8" standalone="no"?>
<svg
   xmlns:dc="http://purl.org/dc/elements/1.1/"
   xmlns:cc="http://creativecommons.org/ns#"
   xmlns:rdf="http://www.w3.org/1999/02/22-rdf-syntax-ns#"
   xmlns:svg="http://www.w3.org/2000/svg"
   xmlns="http://www.w3.org/2000/svg"
   xmlns:sodipodi="http://sodipodi.sourceforge.net/DTD/sodipodi-0.dtd"
   xmlns:inkscape="http://www.inkscape.org/namespaces/inkscape"
   width="32"
   height="10"
   id="svg2"
   version="1.1"
   inkscape:version="0.91 r13725"
   sodipodi:docname="yaha_logo.svg">
  <metadata
     id="metadata22">
    <rdf:RDF>
      <cc:Work
         rdf:about="">
        <dc:format>image/svg+xml</dc:format>
        <dc:type
           rdf:resource="http://purl.org/dc/dcmitype/StillImage" />
        <dc:title></dc:title>
      </cc:Work>
    </rdf:RDF>
  </metadata>
  <sodipodi:namedview
     pagecolor="#ffffff"
     bordercolor="#666666"
     borderopacity="1"
     objecttolerance="10"
     gridtolerance="10"
     guidetolerance="10"
     inkscape:pageopacity="0"
     inkscape:pageshadow="2"
     inkscape:window-width="2399"
     inkscape:window-height="1311"
     id="namedview20"
     showgrid="false"
     inkscape:zoom="22.627417"
     inkscape:cx="12.499501"
     inkscape:cy="-9.4901411"
     inkscape:window-x="61"
     inkscape:window-y="0"
     inkscape:window-maximized="0"
     inkscape:current-layer="yaha_icon_style" />
  <style
     id="style4">
		#yaha_logo_text{
			font-size:100px;
			font-style:normal;
			font-variant:normal;
			font-weight:normal;
			font-stretch:normal;
			text-align:start;
			line-height:125%;
			letter-spacing:0px;
			word-spacing:0px:
			writing-mode:lr-tb;
			text-anchor:start;
			fill:#000000;
			fill-opacity:1;
			stroke:none;
			font-family:Arial Black;
		}
		#yaha_logo_triangle{
			fill:#3F00FF;
			stroke:none;
		}
	</style>
  <defs
     id="defs6" />
  <!-- build log -->
  <g
     id="yaha_icon_style"
     transform="translate(0,-118)">
    <g
       id="yaha_logo"
       transform="translate(0.25,27.625)">
      <title
         id="title4173">Yaha Logo</title>
      <path
         d="m -0.1171875,91.251953 2.4667969,0 1.9921875,3.117188 1.9921875,-3.117188 2.4726562,0 -3.3339844,5.0625 0,3.685547 -2.2558593,0 0,-3.685547 -3.3339844,-5.0625 z"
         style="font-style:normal;font-variant:normal;font-weight:bold;font-stretch:normal;font-family:sans-serif;-inkscape-font-specification:'sans-serif Bold'"
         id="path3353"
         inkscape:connector-curvature="0" />
      <path
         d="m 11.53125,97.046875 q -0.65625,0 -0.990234,0.222656 -0.328125,0.222656 -0.328125,0.65625 0,0.398438 0.263672,0.626953 0.269531,0.222657 0.74414,0.222657 0.591797,0 0.996094,-0.421875 0.404297,-0.427735 0.404297,-1.066407 l 0,-0.240234 -1.089844,0 z m 3.205078,-0.791016 0,3.744141 -2.115234,0 0,-0.972656 q -0.421875,0.597656 -0.949219,0.873047 -0.527344,0.269529 -1.283203,0.269529 -1.0195314,0 -1.6582032,-0.591795 -0.6328125,-0.597656 -0.6328125,-1.546875 0,-1.154297 0.7910156,-1.693359 0.796875,-0.539063 2.4960941,-0.539063 l 1.236328,0 0,-0.164062 q 0,-0.498047 -0.392578,-0.726563 -0.392578,-0.234375 -1.22461,-0.234375 -0.673828,0 -1.253906,0.134766 -0.5800781,0.134765 -1.078125,0.404297 l 0,-1.59961 q 0.6738281,-0.164062 1.353516,-0.246094 0.679687,-0.08789 1.359375,-0.08789 1.77539,0 2.560547,0.703125 0.791015,0.697265 0.791015,2.273437 z"
         style="font-style:normal;font-variant:normal;font-weight:bold;font-stretch:normal;font-family:sans-serif;-inkscape-font-specification:'sans-serif Bold'"
         id="path3355"
         inkscape:connector-curvature="0" />
      <path
         d="m 23.285156,96.003906 0,3.996094 -2.109375,0 0,-0.650391 0,-2.396484 q 0,-0.861328 -0.04102,-1.183594 -0.03516,-0.322265 -0.128907,-0.474609 -0.123047,-0.205078 -0.333984,-0.316406 -0.210938,-0.117188 -0.480469,-0.117188 -0.65625,0 -1.03125,0.509766 -0.375,0.503906 -0.375,1.40039 l 0,3.228516 -2.097656,0 0,-9.117188 2.097656,0 0,3.515625 q 0.47461,-0.574218 1.007813,-0.84375 0.533203,-0.27539 1.177734,-0.27539 1.136719,0 1.722656,0.697265 0.591797,0.697266 0.591797,2.027344 z"
         style="font-style:normal;font-variant:normal;font-weight:bold;font-stretch:normal;font-family:sans-serif;-inkscape-font-specification:'sans-serif Bold'"
         id="path3357"
         inkscape:connector-curvature="0" />
      <path
         d="m 28.183594,97.046875 q -0.65625,0 -0.990235,0.222656 -0.328125,0.222656 -0.328125,0.65625 0,0.398438 0.263672,0.626953 0.269531,0.222657 0.744141,0.222657 0.591797,0 0.996094,-0.421875 0.404296,-0.427735 0.404296,-1.066407 l 0,-0.240234 -1.089843,0 z m 3.205078,-0.791016 0,3.744141 -2.115235,0 0,-0.972656 q -0.421875,0.597656 -0.949218,0.873047 -0.527344,0.269529 -1.283203,0.269529 -1.019532,0 -1.658204,-0.591795 Q 24.75,98.980469 24.75,98.03125 q 0,-1.154297 0.791016,-1.693359 0.796875,-0.539063 2.496093,-0.539063 l 1.236328,0 0,-0.164062 q 0,-0.498047 -0.392578,-0.726563 -0.392578,-0.234375 -1.224609,-0.234375 -0.673828,0 -1.253906,0.134766 -0.580078,0.134765 -1.078125,0.404297 l 0,-1.59961 q 0.673828,-0.164062 1.353515,-0.246094 0.679688,-0.08789 1.359375,-0.08789 1.775391,0 2.560547,0.703125 0.791016,0.697265 0.791016,2.273437 z"
         style="font-style:normal;font-variant:normal;font-weight:bold;font-stretch:normal;font-family:sans-serif;-inkscape-font-specification:'sans-serif Bold'"
         id="path3359"
         inkscape:connector-curvature="0" />
      <g
         style="fill:#0c40ff;fill-opacity:1;stroke:none"
         transform="matrix(0.14127947,0,0,0.13270613,-1.1832069,87.752593)"
         id="yaha_logo_triangle">
        <polygon
           style="fill:#0c40ff;fill-opacity:1"
           id="polygon18"
           points="25,24.5 53.2,24.5 39.16,48 " />
      </g>
    </g>
  </g>
</svg>
