<?xml version="1.0" encoding="iso-8859-1"?>
<!-- Generator: Adobe Illustrator 16.0.0, SVG Export Plug-In . SVG Version: 6.00 Build 0)  -->
<!DOCTYPE svg PUBLIC "-//W3C//DTD SVG 1.1//EN" "http://www.w3.org/Graphics/SVG/1.1/DTD/svg11.dtd">
<svg version="1.1" id="Capa_1" xmlns="http://www.w3.org/2000/svg" xmlns:xlink="http://www.w3.org/1999/xlink" x="0px" y="0px"
	 width="46.035px" height="46.035px" viewBox="0 0 46.035 46.035" style="enable-background:new 0 0 46.035 46.035;"
	 xml:space="preserve">
	<g style="stroke:#0C40FF;stroke-opacity:1;fill:#0C40FF;fill-opacity:1">
		<path d="M35.989,0H10.046C6.317,0,3.292,3.024,3.292,6.754v21.697c0,2.824,1.731,5.24,4.189,6.25l2.998-3.223l-0.021-0.076h-0.409
			c-1.618,0-2.954-1.35-2.954-2.969V9.554H38.94v18.882c0,1.619-1.334,2.969-2.953,2.969h-8.639c0.434,0.586,0.68,1.287,0.708,2.031
			c0.021,0.623-0.112,1.229-0.386,1.771h8.318c3.729,0,6.754-3.023,6.754-6.754V6.755C42.745,3.024,39.72,0,35.989,0z M36.041,6.938
			c-0.931,0-1.688-0.756-1.688-1.69c0-0.933,0.758-1.689,1.688-1.689c0.935,0,1.69,0.756,1.69,1.689
			C37.731,6.181,36.975,6.938,36.041,6.938z"/>
		<path d="M32.594,26.367c1.485-1.598,2.263-3.68,2.183-5.862c-0.078-2.182-1.002-4.203-2.602-5.69
			c-1.518-1.412-3.494-2.189-5.566-2.189c-2.263,0-4.444,0.95-5.986,2.607c-1.927,2.072-2.569,4.885-1.965,7.453l2.436-2.619
			c0.097-0.104,0.199-0.201,0.308-0.292c0.183-0.939,0.621-1.84,1.319-2.591c1.017-1.092,2.397-1.693,3.89-1.693
			c1.346,0,2.629,0.504,3.615,1.421c1.038,0.967,1.639,2.279,1.69,3.697c0.051,1.417-0.453,2.77-1.419,3.809
			c-0.87,0.936-2.008,1.509-3.254,1.654l-2.5,2.688c0.604,0.142,1.229,0.214,1.863,0.214C28.87,28.975,31.052,28.025,32.594,26.367z
			"/>
		<path d="M23.261,30.119c-0.341-0.316-0.541-0.754-0.558-1.219c-0.017-0.463,0.151-0.916,0.468-1.256l2.816-3.027
			c0.315-0.34,0.483-0.791,0.469-1.256c-0.018-0.463-0.219-0.901-0.559-1.217l-0.932-0.867c-0.324-0.302-0.75-0.469-1.193-0.469
			c-0.021,0-0.041,0-0.062,0.001c-0.463,0.017-0.901,0.217-1.218,0.558l-4.933,5.303c-0.172,0.186-0.413,0.287-0.66,0.287
			c-0.073,0-0.147-0.01-0.221-0.027c-0.318-0.08-0.567-0.328-0.65-0.646l-0.301-1.151c-0.206-0.787-0.915-1.31-1.692-1.31
			c-0.146,0-0.296,0.02-0.444,0.059l-1.231,0.32c-0.936,0.244-1.495,1.201-1.251,2.137l1.239,4.743
			c0.151,0.579-0.005,1.196-0.411,1.635l-4.614,4.959c-0.316,0.34-0.484,0.792-0.468,1.256c0.018,0.464,0.218,0.902,0.558,1.218
			l5.824,5.418c0.338,0.313,0.766,0.469,1.193,0.469c0.468,0,0.937-0.188,1.281-0.559L25.68,34.76
			c0.315-0.341,0.483-0.792,0.468-1.256c-0.017-0.464-0.218-0.902-0.558-1.219L23.261,30.119z"/>
	</g>
</svg>
