<?xml version="1.0" encoding="iso-8859-1"?>
<!-- Generator: Adobe Illustrator 16.0.0, SVG Export Plug-In . SVG Version: 6.00 Build 0)  -->
<!DOCTYPE svg PUBLIC "-//W3C//DTD SVG 1.1//EN" "http://www.w3.org/Graphics/SVG/1.1/DTD/svg11.dtd">
<svg version="1.1" id="Capa_1" xmlns="http://www.w3.org/2000/svg" xmlns:xlink="http://www.w3.org/1999/xlink" x="0px" y="0px"
	 width="122.242px" height="122.242px" viewBox="0 0 122.242 122.242" style="enable-background:new 0 0 122.242 122.242;"
	 xml:space="preserve">
	<g style="stroke:#0C40FF;stroke-opacity:1;fill:#0C40FF;fill-opacity:1">
		<path d="M29.099,30.157c7.571,0,13.708-6.138,13.708-13.71c0-7.567-6.137-13.705-13.708-13.705
			c-7.572,0-13.708,6.138-13.708,13.707C15.393,24.021,21.527,30.157,29.099,30.157z"/>
		<path d="M55.762,75.327c-0.37-3.172-3.056-5.565-6.25-5.565h-0.003l-10.903,0.01V54.786c3.657,3.206,7.794,5.232,13.195,5.232
			c3.294,0,7.064-0.757,11.476-2.446c2.746-1.051,4.119-4.127,3.066-6.872c-1.049-2.745-4.127-4.116-6.871-3.067
			c-10.744,4.116-12.862,1.819-22.302-11.082c-0.02-0.028-0.045-0.048-0.068-0.078c-1.808-2.82-4.979-4.723-8.007-5.466
			c0,0-1.441-0.434-2.977-0.399c-1.471,0.031-3.107,0.375-3.107,0.375l-0.042,0.005c-4.611,1.131-9.522,4.886-9.522,10.522
			l0.003,30.257c0,6.578,6.531,10.648,12.578,10.645c0.338,0,0.675-0.027,1.012-0.052l16.873-0.013l3.599,31.068
			c0.373,3.205,3.094,5.564,6.241,5.564c0.241,0,0.486-0.015,0.735-0.045c3.447-0.397,5.922-3.521,5.521-6.972L55.762,75.327z"/>
		<path d="M42.253,89.48c0-2.937-2.383-5.32-5.323-5.32H10.644V41.947c0-2.936-2.384-5.318-5.324-5.318
			c-2.939,0-5.32,2.383-5.32,5.318V89.48c0,1.949,1.052,3.647,2.614,4.578c-1.014,1.812-1.593,3.891-1.593,6.107v14.877
			c0,2.462,1.994,4.457,4.452,4.457c2.461,0,4.458-1.995,4.458-4.457v-14.877c0-2.013,1.635-3.646,3.646-3.646h14.878
			c2.008,0,3.645,1.635,3.645,3.646v14.877c0,2.462,1.995,4.457,4.457,4.457c2.461,0,4.456-1.995,4.456-4.457v-14.877
			c0-2.178-0.556-4.225-1.536-6.012C41.128,93.25,42.253,91.496,42.253,89.48z"/>
		<path d="M117.143,61.121H57.995c-2.815,0-5.098,2.281-5.098,5.098c0,2.817,2.283,5.101,5.098,5.101h6.996v45.278h45.155V71.318
			h6.996c2.816,0,5.1-2.283,5.1-5.1C122.242,63.401,119.959,61.121,117.143,61.121z"/>
		<path d="M99.723,25.835l-4.596,10.453l13.158,5.785l-4.034,12.978H72.924c-1.223,0-2.213,0.992-2.213,2.214
			s0.99,2.214,2.213,2.214h32.957c0.969,0,1.826-0.633,2.114-1.558l10.329-33.236c0.363-1.168-0.289-2.407-1.457-2.769
			c-1.169-0.364-2.407,0.286-2.771,1.453l-2.4,7.73L99.723,25.835z M98.68,36.795l-2.281-1.003l1.004-2.278
			C98.488,34.217,99.005,35.541,98.68,36.795z M99.217,29.389l1-2.279l2.28,1.003C101.794,29.195,100.467,29.713,99.217,29.389z
			 M104.902,38.83c-2.074-0.91-3.018-3.332-2.104-5.403c0.911-2.076,3.332-3.016,5.405-2.104c1.378,0.604,2.238,1.878,2.406,3.271
			l-0.984,3.17C108.475,39.074,106.581,39.568,104.902,38.83z"/>
		<path d="M107.854,32.913l0.24-0.544l-0.604-0.269l-0.247,0.562c-0.406-0.117-0.771-0.133-1.092-0.041
			c-0.346,0.097-0.596,0.312-0.74,0.643c-0.133,0.304-0.156,0.601-0.068,0.887c0.086,0.277,0.285,0.574,0.596,0.879l0.187,0.183
			l-0.479,1.087c-0.168-0.086-0.349-0.201-0.535-0.344c-0.221-0.172-0.403-0.343-0.547-0.512l-0.092-0.112l-0.389,0.882l0.04,0.043
			c0.272,0.306,0.668,0.583,1.179,0.825l-0.307,0.698l0.604,0.264l0.318-0.726c0.445,0.126,0.83,0.144,1.155,0.037
			c0.345-0.108,0.598-0.34,0.748-0.683c0.122-0.275,0.139-0.55,0.052-0.821c-0.089-0.262-0.307-0.565-0.667-0.925l-0.165-0.158
			l0.464-1.06c0.288,0.171,0.562,0.382,0.813,0.637l0.062,0.063l0.633-0.624l-0.062-0.065
			C108.637,33.394,108.268,33.123,107.854,32.913z M106.855,36.306c-0.034,0.08-0.133,0.306-0.592,0.219l0.366-0.832
			c0.114,0.124,0.191,0.224,0.231,0.312C106.903,36.106,106.902,36.206,106.855,36.306z M106.537,34.267
			c-0.105-0.115-0.172-0.219-0.203-0.3c-0.031-0.097-0.027-0.192,0.02-0.299c0.043-0.098,0.113-0.16,0.218-0.192
			c0.085-0.03,0.194-0.03,0.319-0.011L106.537,34.267z"/>
		<path d="M112.48,16.099l-21.293-3.455l-4.293,9.998l21.293,3.456L112.48,16.099z M108.428,16.344l2.66,0.434l-0.938,2.177
			C108.863,18.554,108.168,17.5,108.428,16.344z M90.947,22.392l-2.659-0.432l0.937-2.179C90.514,20.183,91.208,21.24,90.947,22.392
			z M90.918,15.837l0.938-2.182l2.658,0.431C93.816,15.172,92.362,15.878,90.918,15.837z M104.066,20.078
			c-0.853,1.987-3.502,3.276-5.92,2.884c-2.418-0.396-3.689-2.32-2.838-4.305c0.853-1.982,3.504-3.273,5.922-2.879
			C103.648,16.17,104.917,18.099,104.066,20.078z M104.859,24.652c0.701-1.084,2.154-1.79,3.598-1.748l-0.938,2.182L104.859,24.652z
			"/>
		<path d="M100.971,17.234l0.227-0.524l-0.703-0.113l-0.23,0.54c-0.469-0.028-0.885,0.03-1.234,0.169
			c-0.385,0.155-0.646,0.392-0.781,0.704c-0.125,0.29-0.125,0.555-0.002,0.786c0.121,0.226,0.373,0.444,0.746,0.652l0.229,0.121
			l-0.451,1.042c-0.194-0.039-0.41-0.108-0.633-0.197c-0.262-0.105-0.483-0.221-0.66-0.338l-0.117-0.078L97,20.839l0.048,0.03
			c0.333,0.213,0.804,0.375,1.402,0.49l-0.287,0.667l0.704,0.112l0.298-0.695c0.511,0.028,0.95-0.034,1.304-0.188
			c0.381-0.167,0.646-0.413,0.789-0.743c0.114-0.264,0.108-0.507-0.014-0.726c-0.123-0.21-0.395-0.433-0.832-0.678l-0.198-0.106
			l0.433-1.01c0.338,0.092,0.666,0.224,0.973,0.395l0.076,0.046l0.66-0.668l-0.071-0.043
			C101.898,17.503,101.458,17.336,100.971,17.234z M99.344,18.183c0.041-0.095,0.113-0.162,0.229-0.21
			c0.095-0.041,0.218-0.067,0.361-0.069l-0.33,0.77c-0.131-0.083-0.215-0.158-0.254-0.228
			C99.303,18.369,99.301,18.282,99.344,18.183z M99.489,20.687l0.342-0.795c0.138,0.082,0.235,0.158,0.285,0.228
			c0.058,0.077,0.063,0.164,0.021,0.262C100.105,20.46,100.012,20.677,99.489,20.687z"/>
		<path d="M92.426,33.324L74.58,18.177l-4.889,11.019l17.843,15.148L92.426,33.324z M88.918,31.631l2.229,1.891l-1.065,2.403
			C89.027,34.755,88.557,33.019,88.918,31.631z M73.198,30.888l-2.228-1.892l1.065-2.402C73.09,27.764,73.561,29.499,73.198,30.888z
			 M73.967,22.243l1.065-2.403l2.229,1.892C76.529,22.809,75.197,23.015,73.967,22.243z M79.301,35.216
			c-2.023-1.72-2.882-4.886-1.912-7.069c0.969-2.184,3.398-2.563,5.424-0.845c2.027,1.72,2.886,4.888,1.914,7.073
			C83.758,36.561,81.328,36.94,79.301,35.216z M84.855,40.788c0.731-1.079,2.062-1.282,3.295-0.513l-1.064,2.402L84.855,40.788z"/>
		<path d="M82.417,29.089l0.257-0.576l-0.589-0.503l-0.265,0.594c-0.398-0.269-0.762-0.396-1.079-0.385
			c-0.349,0.008-0.603,0.19-0.757,0.534c-0.141,0.319-0.172,0.668-0.094,1.034c0.076,0.357,0.266,0.769,0.56,1.23l0.18,0.271
			l-0.509,1.148c-0.165-0.154-0.339-0.345-0.521-0.574c-0.211-0.272-0.388-0.53-0.523-0.778l-0.09-0.155l-0.412,0.927l0.038,0.061
			c0.26,0.447,0.646,0.899,1.144,1.344l-0.326,0.734l0.588,0.503l0.34-0.765c0.437,0.288,0.818,0.42,1.142,0.396
			c0.349-0.024,0.606-0.222,0.767-0.581c0.129-0.292,0.153-0.615,0.074-0.964c-0.078-0.34-0.285-0.765-0.63-1.305l-0.157-0.242
			l0.493-1.109c0.279,0.288,0.543,0.622,0.785,1.003l0.062,0.096l0.648-0.549l-0.061-0.093
			C83.178,29.901,82.821,29.466,82.417,29.089z M81.322,32.815c-0.038,0.087-0.143,0.323-0.594,0.078l0.389-0.875
			c0.109,0.178,0.182,0.327,0.217,0.439C81.375,32.593,81.369,32.709,81.322,32.815z M81.07,30.296
			c-0.102-0.173-0.166-0.314-0.192-0.423c-0.03-0.125-0.021-0.235,0.028-0.347c0.044-0.104,0.117-0.155,0.22-0.164
			c0.087-0.005,0.194,0.023,0.317,0.089L81.07,30.296z"/>
	</g>
</svg>
