<?xml version="1.0" encoding="iso-8859-1"?>
<!-- Generator: Adobe Illustrator 18.1.1, SVG Export Plug-In . SVG Version: 6.00 Build 0)  -->
<svg version="1.1" id="Capa_1" xmlns="http://www.w3.org/2000/svg" xmlns:xlink="http://www.w3.org/1999/xlink" x="0px" y="0px"
	 viewBox="0 0 472.807 472.807" style="enable-background:new 0 0 472.807 472.807;" xml:space="preserve">
	<g style="stroke:#0C40FF;stroke-opacity:1;fill:#0C40FF;fill-opacity:1">
		<path d="M338.649,0H134.158c-13.567,0-24.605,10.632-24.605,23.695v425.433
			c0,13.046,11.03,23.679,24.605,23.679h204.491c13.575,0,24.605-10.632,24.605-23.679V23.687C363.254,10.624,352.223,0,338.649,0z
			 M200.707,36.822H272.1v5.007h-71.393C200.707,41.83,200.707,36.822,200.707,36.822z M236.407,448.006
			c-7.592,0-13.762-6.17-13.762-13.754c0-7.576,6.17-13.737,13.762-13.737c7.592,0,13.762,6.17,13.762,13.737
			C250.169,441.837,243.999,448.006,236.407,448.006z M346.46,396.52H126.379V70.337H346.46V396.52z"/>
	</g>
</svg>
