<?xml version="1.0" encoding="iso-8859-1"?>
<!-- Generator: Adobe Illustrator 16.0.0, SVG Export Plug-In . SVG Version: 6.00 Build 0)  -->
<!DOCTYPE svg PUBLIC "-//W3C//DTD SVG 1.1//EN" "http://www.w3.org/Graphics/SVG/1.1/DTD/svg11.dtd">
<svg xmlns="http://www.w3.org/2000/svg" xmlns:xlink="http://www.w3.org/1999/xlink" version="1.1" id="Capa_1" x="0px" y="0px" width="512px" height="512px" viewBox="0 0 550.666 550.666" style="enable-background:new 0 0 550.666 550.666;" xml:space="preserve">
<g>
	<path d="M534.703,246.783l-62.4-63.6v-132.8c0-17.7-14.1-31.2-31.8-31.2h-26.9c-17.7,0-31.8,14.1-31.8,31.2v40.4l-45.3-45.9   c-15.9-17.1-37.9-25.7-60.6-25.7c-22,0-44.1,8.6-61.2,25.7l-198.9,202c-33.7,34.3-8.6,80.2,29.4,80.2h33v154.799   c0,27.5,22.6,49.602,49.6,49.602h295c27.5,0,49.6-22.602,49.6-49.602V326.983h33.7   C543.902,326.983,568.402,281.083,534.703,246.783z M277.102,476.983c-66.699,0-120.599-53.9-120.599-120.602   c0-38.6,18.4-72.199,45.9-94.199c6.1-4.3,10.4,0,8.6,3.1c-19.6,45.3-5.5,90,27.5,99.099c-9.8-23.299-14.1-49-11-75.898   c4.3-39.201,23.9-73.401,51.399-97.301c1.2-1.8,4.301-3.1,6.101-3.1s3.1,1.8,2.399,4.3c-1.8,8-3.699,15.9-4.3,23.9   c-3.7,33,3.7,64.3,19,91.201c23.3,0,33-26.9,35.5-45.301c0-4.3,3.7-7.3,10.4-2.4c30,22,49.6,56.9,49.6,96.701   C397.602,423.083,343.802,476.983,277.102,476.983z" fill="#006DF0"/>
</g>
<g>
</g>
<g>
</g>
<g>
</g>
<g>
</g>
<g>
</g>
<g>
</g>
<g>
</g>
<g>
</g>
<g>
</g>
<g>
</g>
<g>
</g>
<g>
</g>
<g>
</g>
<g>
</g>
<g>
</g>
</svg>
