<?xml version="1.0" encoding="UTF-8" standalone="no"?>
<svg
   xmlns:dc="http://purl.org/dc/elements/1.1/"
   xmlns:cc="http://creativecommons.org/ns#"
   xmlns:rdf="http://www.w3.org/1999/02/22-rdf-syntax-ns#"
   xmlns:svg="http://www.w3.org/2000/svg"
   xmlns="http://www.w3.org/2000/svg"
   version="1.1"
   id="Capa_1"
   x="0px"
   y="0px"
   width="554.625px"
   height="554.625px"
   viewBox="0 0 554.625 554.625"
   style="enable-background:new 0 0 554.625 554.625; stroke:#0C40FF;stroke-opacity:1;fill:#0C40FF;fill-opacity:1"
   xml:space="preserve"><metadata
     id="metadata4229"><rdf:RDF><cc:Work
         rdf:about=""><dc:format>image/svg+xml</dc:format><dc:type
           rdf:resource="http://purl.org/dc/dcmitype/StillImage" /><dc:title></dc:title></cc:Work></rdf:RDF></metadata><defs
     id="defs4227" /><g
     id="g4137"><g
       id="g4139"><polygon
         points="9.562,90.844 411.188,90.844 411.188,62.156 47.812,62.156   "
         id="polygon4141" /><polygon
         points="439.875,62.156 439.875,90.844 535.5,90.844 497.25,62.156   "
         id="polygon4143" /><polygon
         points="411.188,167.344 411.188,138.656 47.812,138.656 9.562,167.344   "
         id="polygon4149" /><polygon
         points="439.875,138.656 439.875,167.344 535.5,167.344 497.25,138.656   "
         id="polygon4151" /><polygon
         points="411.188,243.844 411.188,215.156 47.812,215.156 9.562,243.844   "
         id="polygon4157" /><polygon
         points="439.875,215.156 439.875,243.844 535.5,243.844 497.25,215.156   "
         id="polygon4159" /><polygon
         points="411.188,320.344 411.188,291.656 47.812,291.656 9.562,320.344   "
         id="polygon4165" /><polygon
         points="439.875,291.656 439.875,320.344 535.5,320.344 497.25,291.656   "
         id="polygon4167" /><polygon
         points="439.875,368.156 439.875,396.844 535.5,396.844 497.25,368.156   "
         id="polygon4173" /><polygon
         points="411.188,396.844 411.188,368.156 47.812,368.156 9.562,396.844   "
         id="polygon4175" /><path
         d="M403.652,473.344c1.654-3.768,4.294-6.98,7.535-9.438v-19.249H47.812l-38.25,28.688H403.652z"
         id="path4181" /><path
         d="M439.875,444.656v19.249c3.251,2.458,5.881,5.671,7.535,9.438h88.09l-38.25-28.688H439.875z"
         id="path4183" /><polygon
         points="47.812,521.156 9.562,549.844 535.5,549.844 497.25,521.156   "
         id="polygon4187" /><path
         d="M430.312,459.487v-14.831v-9.562v-28.688v-9.562v-28.688v-9.562v-28.688v-9.562v-28.688v-9.562v-28.688v-9.562v-28.688    v-9.562v-28.688v-9.562v-28.688v-9.562v-28.688v-9.562V62.156h-9.562v28.688v9.562v28.688v9.562v28.688v9.562v28.688v9.562v28.688    v9.562v28.688v9.562v28.688v9.562v28.688v9.562v28.688v9.562v28.688v9.562v14.831c1.549-0.315,3.146-0.487,4.781-0.487    S428.764,459.172,430.312,459.487z"
         id="path4189" /><polygon
         points="0,52.594 411.188,52.594 420.75,52.594 430.312,52.594 439.875,52.594 554.625,52.594 554.625,4.781 0,4.781       "
         id="polygon4191" /><path
         d="M414.917,473.344c-2.295,2.544-3.729,5.871-3.729,9.562c0,7.908,6.436,14.344,14.344,14.344s14.344-6.436,14.344-14.344    c0-3.691-1.435-7.019-3.729-9.562c-1.578-1.75-3.566-3.089-5.833-3.901c-1.501-0.536-3.099-0.88-4.781-0.88    s-3.28,0.344-4.781,0.88C418.483,470.255,416.495,471.594,414.917,473.344z"
         id="path4193" /></g></g><g
     id="g4195" /><g
     id="g4197" /><g
     id="g4199" /><g
     id="g4201" /><g
     id="g4203" /><g
     id="g4205" /><g
     id="g4207" /><g
     id="g4209" /><g
     id="g4211" /><g
     id="g4213" /><g
     id="g4215" /><g
     id="g4217" /><g
     id="g4219" /><g
     id="g4221" /><g
     id="g4223" /></svg>