<?xml version="1.0" encoding="iso-8859-1"?>
<!-- Generator: Adobe Illustrator 17.1.0, SVG Export Plug-In . SVG Version: 6.00 Build 0)  -->
<!DOCTYPE svg PUBLIC "-//W3C//DTD SVG 1.1//EN" "http://www.w3.org/Graphics/SVG/1.1/DTD/svg11.dtd">
<svg version="1.1" id="Capa_1" xmlns="http://www.w3.org/2000/svg" xmlns:xlink="http://www.w3.org/1999/xlink" x="0px" y="0px"
	 viewBox="0 0 250.988 250.988" style="enable-background:new 0 0 250.988 250.988;" xml:space="preserve">
<g style="stroke:#0C40FF;stroke-opacity:1;fill:#0C40FF;fill-opacity:1">
	<path d="M201.345,135.041c-0.983,0-1.992,0.141-2.998,0.418l-5.693,1.567l-7.285-17.744c-3.352-8.166-13.261-14.811-22.088-14.811
		H87.589c-8.827,0-18.736,6.645-22.088,14.811l-7.272,17.715l-5.586-1.538c-1.007-0.277-2.016-0.418-2.999-0.418
		c-5.385,0-9.294,4.113-9.294,9.781v0.209c0,5.849,4.209,10.727,9.755,11.781c-3.029,7.639-5.464,20.12-5.464,28.155v36.854
		c0,6.616,5.384,12,12,12h6.914c6.616,0,12-5.384,12-12v-7.693h99.762v7.693c0,6.616,5.384,12,12,12h6.914c6.616,0,12-5.384,12-12
		v-36.854c0-8.03-2.432-20.5-5.458-28.138c5.601-1.012,9.866-5.912,9.866-11.799v-0.209
		C210.639,139.155,206.73,135.041,201.345,135.041z M65.944,149.317l11.57-28.188c2.005-4.885,7.966-8.881,13.245-8.881h69.352
		c5.279,0,11.24,3.996,13.245,8.881l11.572,28.188c2.005,4.885-0.675,8.881-5.954,8.881H71.898
		C66.619,158.198,63.939,154.201,65.944,149.317z M94.949,191.638c0,2.64-2.16,4.8-4.8,4.8H67.099c-2.64,0-4.8-2.16-4.8-4.8v-9.809
		c0-2.64,2.16-4.8,4.8-4.8h23.051c2.64,0,4.8,2.16,4.8,4.8V191.638z M188.332,191.638c0,2.64-2.16,4.8-4.8,4.8h-23.051
		c-2.64,0-4.8-2.16-4.8-4.8v-9.809c0-2.64,2.16-4.8,4.8-4.8h23.051c2.64,0,4.8,2.16,4.8,4.8V191.638z"/>
	<path d="M228.488,13.264H22.5c-12.406,0-22.5,10.093-22.5,22.5v189.459c0,6.903,5.597,12.5,12.5,12.5c6.903,0,12.5-5.597,12.5-12.5
		V92.82h200.988v132.404c0,6.903,5.597,12.5,12.5,12.5c6.903,0,12.5-5.597,12.5-12.5V35.764
		C250.988,23.358,240.895,13.264,228.488,13.264z M25,64.083h200.988v4.369H25V64.083z M25,54.083v-3.507h200.988v3.507H25z
		 M25,82.82v-4.368h200.988v4.368H25z"/>
</g>
</svg>
